{"glyphs":{"0":{"ha":1158,"x_min":79,"x_max":1061,"o":"m 282 0 q 181 31 226 0 q 107 112 135 63 q 79 215 79 161 l 79 793 q 107 896 79 849 q 181 972 135 943 q 282 1000 226 1000 l 858 1000 q 960 972 914 1000 q 1033 896 1006 943 q 1061 793 1061 849 l 1061 215 q 1033 112 1061 161 q 960 31 1006 63 q 858 0 914 0 l 282 0 l 282 0 m 406 226 l 406 226 l 849 226 q 849 226 849 226 q 849 226 849 226 l 849 599 l 406 226 m 292 410 l 292 410 l 735 782 l 292 782 q 292 782 292 782 q 292 782 292 782 l 292 410 z "},"1":{"ha":543,"x_min":1,"x_max":542,"o":"m 329 0 l 329 0 l 329 676 l 283 619 l 1 619 l 321 1000 l 542 1000 l 542 0 l 329 0 z "},"2":{"ha":1153,"x_min":79,"x_max":1061,"o":"m 79 0 l 79 0 l 79 388 q 107 489 79 443 q 181 562 135 535 q 282 589 226 589 l 849 589 q 849 589 849 589 q 849 589 849 589 l 849 788 q 849 788 849 788 q 849 788 849 788 l 292 788 q 292 788 292 788 q 292 788 292 788 l 292 707 l 79 707 l 79 799 q 107 900 79 854 q 181 973 135 946 q 282 1000 226 1000 l 858 1000 q 960 973 914 1000 q 1033 900 1006 946 q 1061 799 1061 854 l 1061 578 q 1033 476 1061 522 q 960 403 1006 431 q 858 375 914 375 l 292 375 q 292 375 292 375 q 292 375 292 375 l 292 213 q 292 213 292 213 q 292 213 292 213 l 1061 213 l 1061 0 l 79 0 z "},"3":{"ha":1147,"x_min":74,"x_max":1056,"o":"m 276 0 q 175 28 221 0 q 101 101 129 56 q 74 201 74 147 l 74 279 l 286 279 l 286 213 q 286 213 286 213 q 286 213 286 213 l 843 213 q 843 213 843 213 q 843 213 843 213 l 843 397 q 843 397 843 397 q 843 397 843 397 l 238 397 l 238 610 l 806 610 q 806 610 806 610 q 806 610 806 610 l 806 788 q 806 788 806 788 q 806 788 806 788 l 286 788 q 286 788 286 788 q 286 788 286 788 l 286 710 l 74 710 l 74 799 q 101 900 74 854 q 175 973 129 946 q 276 1000 221 1000 l 817 1000 q 918 973 872 1000 q 991 900 964 946 q 1018 799 1018 854 l 1018 599 q 1016 566 1018 583 q 1010 535 1014 549 q 1043 477 1031 510 q 1056 408 1056 444 l 1056 201 q 1028 101 1056 147 q 956 28 1001 56 q 854 0 910 0 l 276 0 l 276 0 z "},"4":{"ha":1014,"x_min":8,"x_max":953,"o":"m 607 0 l 607 0 l 607 249 l 8 249 l 8 439 l 629 1000 l 819 1000 l 819 463 l 953 463 l 953 249 l 819 249 l 819 0 l 607 0 m 354 463 l 354 463 l 607 463 l 607 668 l 354 463 z "},"5":{"ha":1153,"x_min":79,"x_max":1061,"o":"m 282 0 q 181 28 226 0 q 107 101 135 56 q 79 201 79 147 l 79 279 l 292 279 l 292 213 q 292 213 292 213 q 292 213 292 213 l 849 213 q 849 213 849 213 q 849 213 849 213 l 849 400 q 849 400 849 400 q 849 400 849 400 l 79 400 l 79 1000 l 1061 1000 l 1061 788 l 292 788 q 292 788 292 788 q 292 788 292 788 l 292 614 q 292 614 292 614 q 292 614 292 614 l 858 614 q 960 587 914 614 q 1033 514 1006 560 q 1061 413 1061 468 l 1061 201 q 1033 101 1061 147 q 960 28 1006 56 q 858 0 914 0 l 282 0 l 282 0 z "},"6":{"ha":1139,"x_min":79,"x_max":1061,"o":"m 282 0 q 181 28 226 0 q 107 101 135 56 q 79 201 79 147 l 79 799 q 107 900 79 854 q 181 973 135 946 q 282 1000 226 1000 l 910 1000 l 910 788 l 292 788 q 292 788 292 788 q 292 788 292 788 l 292 614 q 292 614 292 614 q 292 614 292 614 l 858 614 q 960 587 914 614 q 1033 514 1006 560 q 1061 413 1061 468 l 1061 201 q 1033 101 1061 147 q 960 28 1006 56 q 858 0 914 0 l 282 0 l 282 0 m 292 213 l 849 213 q 849 213 849 213 q 849 213 849 213 l 849 400 q 849 400 849 400 q 849 400 849 400 l 292 400 l 292 213 q 292 213 292 213 q 292 213 292 213 z "},"7":{"ha":917,"x_min":4,"x_max":835,"o":"m 622 0 l 622 0 l 622 789 q 622 789 622 789 q 622 789 622 789 l 4 789 l 4 1001 l 633 1001 q 735 974 689 1001 q 808 901 781 947 q 835 800 835 856 l 835 0 l 622 0 z "},"8":{"ha":1158,"x_min":79,"x_max":1061,"o":"m 282 0 q 181 28 226 0 q 107 101 135 56 q 79 201 79 147 l 79 413 q 86 460 79 436 q 103 507 93 485 q 86 553 93 529 q 79 603 79 578 l 79 799 q 107 900 79 854 q 181 973 135 946 q 282 1000 226 1000 l 858 1000 q 951 978 908 1000 q 1024 919 994 957 q 1061 835 1053 882 l 1061 603 q 1038 507 1061 554 q 1061 413 1061 465 l 1061 201 q 1033 101 1061 147 q 960 28 1006 56 q 858 0 914 0 l 282 0 l 282 0 m 292 213 l 292 213 l 849 213 q 849 213 849 213 q 849 213 849 213 l 849 400 q 849 400 849 400 q 849 400 849 400 l 292 400 q 292 400 292 400 q 292 400 292 400 l 292 213 q 292 213 292 213 q 292 213 292 213 m 292 600 l 292 600 l 849 600 q 849 600 849 600 q 849 600 849 600 l 849 786 q 849 786 849 786 q 849 786 849 786 l 292 786 q 292 786 292 786 q 292 786 292 786 l 292 600 q 292 600 292 600 q 292 600 292 600 z "},"9":{"ha":1150,"x_min":71,"x_max":1057,"o":"m 278 0 q 185 28 228 0 q 111 105 142 57 q 71 213 81 153 l 844 213 q 844 213 844 213 q 844 213 844 213 l 844 390 q 844 390 844 390 q 844 390 844 390 l 278 390 q 176 418 222 390 q 103 492 131 446 q 75 593 75 538 l 75 799 q 103 900 75 854 q 176 973 131 946 q 278 1000 222 1000 l 856 1000 q 957 973 911 1000 q 1030 900 1003 946 q 1057 799 1057 854 l 1057 201 q 1030 101 1057 147 q 957 28 1003 56 q 856 0 911 0 l 278 0 l 278 0 m 289 604 l 289 604 l 844 604 l 844 788 q 844 788 844 788 q 844 788 844 788 l 289 788 q 289 788 289 788 q 289 788 289 788 l 289 604 q 289 604 289 604 q 289 604 289 604 z "},"A":{"ha":1161,"x_min":81,"x_max":1081,"o":"m 81 0 l 81 794 q 108 898 81 851 q 183 972 136 944 q 286 1000 231 1000 l 874 1000 q 977 972 931 1000 q 1052 898 1024 944 q 1081 794 1081 851 l 1081 0 l 863 0 l 863 322 l 296 322 l 296 0 l 81 0 l 81 0 m 296 539 l 863 539 l 863 783 q 863 783 863 783 q 863 783 863 783 l 296 783 q 296 783 296 783 q 296 783 296 783 l 296 539 l 296 539 z "},"Á":{"ha":1161,"x_min":81,"x_max":1081,"o":"m 81 0 l 81 794 q 108 898 81 851 q 183 972 136 944 q 286 1000 231 1000 l 874 1000 q 977 972 931 1000 q 1052 898 1024 944 q 1081 794 1081 851 l 1081 0 l 863 0 l 863 322 l 296 322 l 296 0 l 81 0 l 81 0 m 296 539 l 863 539 l 863 783 q 863 783 863 783 q 863 783 863 783 l 296 783 q 296 783 296 783 q 296 783 296 783 l 296 539 l 296 539 m 464 1083 l 464 1083 l 535 1365 l 753 1365 l 682 1083 l 464 1083 z "},"Â":{"ha":1161,"x_min":81,"x_max":1081,"o":"m 81 0 l 81 794 q 108 898 81 851 q 183 972 136 944 q 286 1000 231 1000 l 874 1000 q 977 972 931 1000 q 1052 898 1024 944 q 1081 794 1081 851 l 1081 0 l 863 0 l 863 322 l 296 322 l 296 0 l 81 0 l 81 0 m 296 539 l 863 539 l 863 783 q 863 783 863 783 q 863 783 863 783 l 296 783 q 296 783 296 783 q 296 783 296 783 l 296 539 l 296 539 m 360 1083 l 360 1083 l 513 1339 l 651 1339 l 804 1083 l 618 1083 l 579 1144 l 544 1083 l 360 1083 z "},"Ä":{"ha":1161,"x_min":81,"x_max":1081,"o":"m 81 0 l 81 794 q 108 898 81 851 q 183 972 136 944 q 286 1000 231 1000 l 874 1000 q 977 972 931 1000 q 1052 898 1024 944 q 1081 794 1081 851 l 1081 0 l 863 0 l 863 322 l 296 322 l 296 0 l 81 0 l 81 0 m 296 539 l 863 539 l 863 783 q 863 783 863 783 q 863 783 863 783 l 296 783 q 296 783 296 783 q 296 783 296 783 l 296 539 l 296 539 m 622 1083 l 622 1083 l 622 1297 l 836 1297 l 836 1083 l 622 1083 m 326 1083 l 326 1083 l 326 1297 l 539 1297 l 539 1083 l 326 1083 z "},"À":{"ha":1161,"x_min":81,"x_max":1081,"o":"m 81 0 l 81 794 q 108 898 81 851 q 183 972 136 944 q 286 1000 231 1000 l 874 1000 q 977 972 931 1000 q 1052 898 1024 944 q 1081 794 1081 851 l 1081 0 l 863 0 l 863 322 l 296 322 l 296 0 l 81 0 l 81 0 m 296 539 l 863 539 l 863 783 q 863 783 863 783 q 863 783 863 783 l 296 783 q 296 783 296 783 q 296 783 296 783 l 296 539 l 296 539 m 483 1083 l 483 1083 l 413 1365 l 631 1365 l 701 1083 l 483 1083 z "},"Å":{"ha":1161,"x_min":81,"x_max":1081,"o":"m 81 0 l 81 794 q 108 898 81 851 q 183 972 136 944 q 286 1000 231 1000 l 874 1000 q 977 972 931 1000 q 1052 898 1024 944 q 1081 794 1081 851 l 1081 0 l 863 0 l 863 322 l 296 322 l 296 0 l 81 0 l 81 0 m 296 539 l 863 539 l 863 783 q 863 783 863 783 q 863 783 863 783 l 296 783 q 296 783 296 783 q 296 783 296 783 l 296 539 l 296 539 m 546 1083 q 471 1115 503 1083 q 439 1189 439 1146 l 439 1257 q 471 1331 439 1300 q 546 1363 503 1363 l 617 1363 q 691 1331 660 1363 q 722 1257 722 1300 l 722 1189 q 691 1115 722 1146 q 617 1083 660 1083 l 546 1083 m 546 1179 l 615 1179 q 615 1179 615 1179 q 615 1179 615 1179 l 615 1254 q 615 1254 615 1254 q 615 1254 615 1254 l 546 1254 q 546 1254 546 1254 q 546 1254 546 1254 l 546 1179 q 546 1179 546 1179 q 546 1179 546 1179 z "},"Ã":{"ha":1161,"x_min":81,"x_max":1081,"o":"m 81 0 l 81 794 q 108 898 81 851 q 183 972 136 944 q 286 1000 231 1000 l 874 1000 q 977 972 931 1000 q 1052 898 1024 944 q 1081 794 1081 851 l 1081 0 l 863 0 l 863 322 l 296 322 l 296 0 l 81 0 l 81 0 m 296 539 l 863 539 l 863 783 q 863 783 863 783 q 863 783 863 783 l 296 783 q 296 783 296 783 q 296 783 296 783 l 296 539 l 296 539 m 700 1094 q 546 1153 621 1094 q 426 1211 474 1211 l 319 1211 l 319 1372 l 443 1372 q 585 1313 519 1372 q 713 1253 650 1253 l 842 1253 l 842 1094 l 700 1094 l 700 1094 z "},"Æ":{"ha":1910,"x_min":75,"x_max":1782,"o":"m 75 0 l 75 0 l 75 794 q 103 898 75 851 q 178 972 132 944 q 281 1000 225 1000 l 1782 1000 l 1782 783 l 1075 783 l 1075 608 l 1643 608 l 1643 392 l 1075 392 l 1075 217 l 1782 217 l 1782 0 l 860 0 l 860 322 l 293 322 l 293 0 l 75 0 m 293 539 l 293 539 l 860 539 l 860 783 q 860 783 860 783 q 860 783 860 783 l 293 783 q 293 783 293 783 q 293 783 293 783 l 293 539 z "},"B":{"ha":1156,"x_min":82,"x_max":1082,"o":"m 82 0 l 82 1000 l 838 1000 q 940 972 893 1000 q 1015 898 986 944 q 1043 794 1043 851 l 1043 607 q 1041 573 1043 589 q 1033 543 1039 557 q 1068 482 1054 517 q 1082 413 1082 447 l 1082 206 q 1053 103 1082 150 q 978 28 1025 56 q 875 0 932 0 l 82 0 l 82 0 m 297 217 l 864 217 q 864 217 864 217 q 864 217 864 217 l 864 400 q 864 400 864 400 q 864 400 864 400 l 297 400 q 297 400 297 400 q 297 400 297 400 l 297 217 q 297 217 297 217 q 297 217 297 217 m 297 617 l 825 617 q 825 617 825 617 q 825 617 825 617 l 825 783 q 825 783 825 783 q 825 783 825 783 l 297 783 q 297 783 297 783 q 297 783 297 783 l 297 617 q 297 617 297 617 q 297 617 297 617 z "},"C":{"ha":1142,"x_min":78,"x_max":1075,"o":"m 283 0 q 180 28 226 0 q 106 102 133 56 q 78 206 78 149 l 78 794 q 106 898 78 851 q 180 972 133 944 q 283 1000 226 1000 l 1075 1000 l 1075 783 l 339 783 q 305 772 317 783 q 293 738 293 761 l 293 263 q 305 228 293 240 q 339 217 317 217 l 1075 217 l 1075 0 l 283 0 z "},"Ç":{"ha":1142,"x_min":78,"x_max":1075,"o":"m 283 0 q 180 28 226 0 q 106 102 133 56 q 78 206 78 149 l 78 794 q 106 898 78 851 q 180 972 133 944 q 283 1000 226 1000 l 1075 1000 l 1075 783 l 339 783 q 305 772 317 783 q 293 738 293 761 l 293 263 q 305 228 293 240 q 339 217 317 217 l 1075 217 l 1075 0 l 283 0 m 454 -217 l 526 21 l 744 21 l 672 -217 l 454 -217 z "},"D":{"ha":1158,"x_min":81,"x_max":1081,"o":"m 81 0 l 81 1000 l 874 1000 q 977 972 931 1000 q 1052 898 1024 944 q 1081 794 1081 851 l 1081 206 q 1052 103 1081 150 q 977 28 1024 56 q 874 0 931 0 l 81 0 m 294 217 l 863 217 q 863 217 863 217 q 863 217 863 217 l 863 783 q 863 783 863 783 q 863 783 863 783 l 294 783 q 294 783 294 783 q 294 783 294 783 l 294 217 q 294 217 294 217 q 294 217 294 217 z "},"E":{"ha":1064,"x_min":81,"x_max":1004,"o":"m 81 0 l 81 1000 l 1004 1000 l 1004 783 l 299 783 l 299 608 l 867 608 l 867 392 l 299 392 l 299 217 l 1004 217 l 1004 0 l 81 0 z "},"É":{"ha":1064,"x_min":81,"x_max":1004,"o":"m 81 0 l 81 1000 l 1004 1000 l 1004 783 l 299 783 l 299 608 l 867 608 l 867 392 l 299 392 l 299 217 l 1004 217 l 1004 0 l 81 0 m 436 1083 l 436 1083 l 507 1365 l 725 1365 l 654 1083 l 436 1083 z "},"Ê":{"ha":1064,"x_min":81,"x_max":1004,"o":"m 81 0 l 81 1000 l 1004 1000 l 1004 783 l 299 783 l 299 608 l 867 608 l 867 392 l 299 392 l 299 217 l 1004 217 l 1004 0 l 81 0 m 332 1083 l 332 1083 l 485 1339 l 624 1339 l 776 1083 l 590 1083 l 551 1144 l 517 1083 l 332 1083 z "},"Ë":{"ha":1064,"x_min":81,"x_max":1004,"o":"m 81 0 l 81 1000 l 1004 1000 l 1004 783 l 299 783 l 299 608 l 867 608 l 867 392 l 299 392 l 299 217 l 1004 217 l 1004 0 l 81 0 m 594 1083 l 594 1083 l 594 1297 l 808 1297 l 808 1083 l 594 1083 m 299 1083 l 299 1083 l 299 1297 l 511 1297 l 511 1083 l 299 1083 z "},"È":{"ha":1064,"x_min":81,"x_max":1004,"o":"m 81 0 l 81 1000 l 1004 1000 l 1004 783 l 299 783 l 299 608 l 867 608 l 867 392 l 299 392 l 299 217 l 1004 217 l 1004 0 l 81 0 m 456 1083 l 456 1083 l 385 1365 l 603 1365 l 674 1083 l 456 1083 z "},"F":{"ha":1004,"x_min":81,"x_max":1004,"o":"m 81 0 l 81 1000 l 1004 1000 l 1004 783 l 299 783 l 299 608 l 867 608 l 867 392 l 299 392 l 299 0 l 81 0 z "},"G":{"ha":1153,"x_min":78,"x_max":1078,"o":"m 283 0 q 181 28 228 0 q 106 103 133 56 q 78 206 78 150 l 78 794 q 106 898 78 851 q 181 972 133 944 q 283 1000 228 1000 l 871 1000 q 974 972 928 1000 q 1049 898 1021 944 q 1078 794 1078 851 l 1078 700 l 860 700 l 860 783 q 860 783 860 783 q 860 783 860 783 l 293 783 q 293 783 293 783 q 293 783 293 783 l 293 217 q 293 217 293 217 q 293 217 293 217 l 860 217 q 860 217 860 217 q 860 217 860 217 l 860 367 l 643 367 l 643 583 l 1078 583 l 1078 206 q 1049 103 1078 150 q 974 28 1021 56 q 871 0 928 0 l 283 0 z "},"H":{"ha":1182,"x_min":79,"x_max":1100,"o":"m 79 0 l 79 1000 l 294 1000 l 294 608 l 885 608 l 885 1000 l 1100 1000 l 1100 0 l 885 0 l 885 392 l 294 392 l 294 0 l 79 0 z "},"I":{"ha":297,"x_min":43,"x_max":256,"o":"m 43 0 l 43 1000 l 256 1000 l 256 0 l 43 0 z "},"Í":{"ha":297,"x_min":35,"x_max":324,"o":"m 43 0 l 43 1000 l 256 1000 l 256 0 l 43 0 m 35 1083 l 35 1083 l 106 1365 l 324 1365 l 253 1083 l 35 1083 z "},"Î":{"ha":297,"x_min":-69,"x_max":375,"o":"m 43 0 l 43 1000 l 256 1000 l 256 0 l 43 0 m -69 1083 l -69 1083 l 83 1339 l 222 1339 l 375 1083 l 189 1083 l 150 1144 l 115 1083 l -69 1083 z "},"Ï":{"ha":297,"x_min":-103,"x_max":407,"o":"m 43 0 l 43 1000 l 256 1000 l 256 0 l 43 0 m 193 1083 l 193 1083 l 193 1297 l 407 1297 l 407 1083 l 193 1083 m -103 1083 l -103 1083 l -103 1297 l 110 1297 l 110 1083 l -103 1083 z "},"Ì":{"ha":297,"x_min":-17,"x_max":272,"o":"m 43 0 l 43 1000 l 256 1000 l 256 0 l 43 0 m 54 1083 l 54 1083 l -17 1365 l 201 1365 l 272 1083 l 54 1083 z "},"J":{"ha":1083,"x_min":6,"x_max":1006,"o":"m 211 0 q 108 28 156 0 q 33 103 61 56 q 6 206 6 150 l 6 335 l 221 335 l 221 217 q 221 217 221 217 q 221 217 221 217 l 788 217 q 788 217 788 217 q 788 217 788 217 l 788 1000 l 1006 1000 l 1006 206 q 977 103 1006 150 q 902 28 949 56 q 800 0 856 0 l 211 0 z "},"K":{"ha":1107,"x_min":79,"x_max":1044,"o":"m 79 0 l 79 1000 l 296 1000 l 296 608 l 492 608 l 819 1000 l 1044 1000 l 1044 925 l 688 500 l 1044 75 l 1044 0 l 819 0 l 492 392 l 296 392 l 296 0 l 79 0 z "},"L":{"ha":1082,"x_min":79,"x_max":1079,"o":"m 79 0 l 79 1001 l 294 1001 l 294 217 l 1079 217 l 1079 0 l 79 0 z "},"M":{"ha":1289,"x_min":78,"x_max":1200,"o":"m 78 0 l 78 1000 l 300 1000 l 639 596 l 976 1000 l 1200 1000 l 1200 0 l 983 0 l 983 671 l 639 260 l 293 669 l 293 0 l 78 0 z "},"N":{"ha":1156,"x_min":78,"x_max":1078,"o":"m 78 0 l 78 1000 l 300 1000 l 860 333 l 860 1000 l 1078 1000 l 1078 0 l 856 0 l 293 669 l 293 0 l 78 0 z "},"Ñ":{"ha":1156,"x_min":78,"x_max":1078,"o":"m 78 0 l 78 1000 l 300 1000 l 860 333 l 860 1000 l 1078 1000 l 1078 0 l 856 0 l 293 669 l 293 0 l 78 0 m 679 1094 q 525 1153 600 1094 q 406 1211 453 1211 l 299 1211 l 299 1372 l 422 1372 q 564 1313 499 1372 q 692 1253 629 1253 l 821 1253 l 821 1094 l 679 1094 l 679 1094 z "},"O":{"ha":1150,"x_min":75,"x_max":1075,"o":"m 281 0 q 178 28 225 0 q 103 103 131 56 q 75 206 75 150 l 75 794 q 103 898 75 851 q 178 972 131 944 q 281 1000 225 1000 l 869 1000 q 972 972 925 1000 q 1047 898 1018 944 q 1075 794 1075 851 l 1075 206 q 1047 103 1075 150 q 972 28 1018 56 q 869 0 925 0 l 281 0 m 290 217 l 857 217 q 857 217 857 217 q 857 217 857 217 l 857 783 q 857 783 857 783 q 857 783 857 783 l 290 783 q 290 783 290 783 q 290 783 290 783 l 290 217 q 290 217 290 217 q 290 217 290 217 z "},"Ó":{"ha":1150,"x_min":75,"x_max":1075,"o":"m 281 0 q 178 28 225 0 q 103 103 131 56 q 75 206 75 150 l 75 794 q 103 898 75 851 q 178 972 131 944 q 281 1000 225 1000 l 869 1000 q 972 972 925 1000 q 1047 898 1018 944 q 1075 794 1075 851 l 1075 206 q 1047 103 1075 150 q 972 28 1018 56 q 869 0 925 0 l 281 0 m 290 217 l 857 217 q 857 217 857 217 q 857 217 857 217 l 857 783 q 857 783 857 783 q 857 783 857 783 l 290 783 q 290 783 290 783 q 290 783 290 783 l 290 217 q 290 217 290 217 q 290 217 290 217 m 458 1083 l 458 1083 l 529 1365 l 747 1365 l 676 1083 l 458 1083 z "},"Ô":{"ha":1150,"x_min":75,"x_max":1075,"o":"m 281 0 q 178 28 225 0 q 103 103 131 56 q 75 206 75 150 l 75 794 q 103 898 75 851 q 178 972 131 944 q 281 1000 225 1000 l 869 1000 q 972 972 925 1000 q 1047 898 1018 944 q 1075 794 1075 851 l 1075 206 q 1047 103 1075 150 q 972 28 1018 56 q 869 0 925 0 l 281 0 m 290 217 l 857 217 q 857 217 857 217 q 857 217 857 217 l 857 783 q 857 783 857 783 q 857 783 857 783 l 290 783 q 290 783 290 783 q 290 783 290 783 l 290 217 q 290 217 290 217 q 290 217 290 217 m 354 1083 l 354 1083 l 507 1339 l 646 1339 l 799 1083 l 613 1083 l 574 1144 l 539 1083 l 354 1083 z "},"Ö":{"ha":1150,"x_min":75,"x_max":1075,"o":"m 281 0 q 178 28 225 0 q 103 103 131 56 q 75 206 75 150 l 75 794 q 103 898 75 851 q 178 972 131 944 q 281 1000 225 1000 l 869 1000 q 972 972 925 1000 q 1047 898 1018 944 q 1075 794 1075 851 l 1075 206 q 1047 103 1075 150 q 972 28 1018 56 q 869 0 925 0 l 281 0 m 290 217 l 857 217 q 857 217 857 217 q 857 217 857 217 l 857 783 q 857 783 857 783 q 857 783 857 783 l 290 783 q 290 783 290 783 q 290 783 290 783 l 290 217 q 290 217 290 217 q 290 217 290 217 m 617 1083 l 617 1083 l 617 1297 l 831 1297 l 831 1083 l 617 1083 m 321 1083 l 321 1083 l 321 1297 l 533 1297 l 533 1083 l 321 1083 z "},"Ò":{"ha":1150,"x_min":75,"x_max":1075,"o":"m 281 0 q 178 28 225 0 q 103 103 131 56 q 75 206 75 150 l 75 794 q 103 898 75 851 q 178 972 131 944 q 281 1000 225 1000 l 869 1000 q 972 972 925 1000 q 1047 898 1018 944 q 1075 794 1075 851 l 1075 206 q 1047 103 1075 150 q 972 28 1018 56 q 869 0 925 0 l 281 0 m 290 217 l 857 217 q 857 217 857 217 q 857 217 857 217 l 857 783 q 857 783 857 783 q 857 783 857 783 l 290 783 q 290 783 290 783 q 290 783 290 783 l 290 217 q 290 217 290 217 q 290 217 290 217 m 478 1083 l 478 1083 l 407 1365 l 625 1365 l 696 1083 l 478 1083 z "},"Õ":{"ha":1150,"x_min":75,"x_max":1075,"o":"m 281 0 q 178 28 225 0 q 103 103 131 56 q 75 206 75 150 l 75 794 q 103 898 75 851 q 178 972 131 944 q 281 1000 225 1000 l 869 1000 q 972 972 925 1000 q 1047 898 1018 944 q 1075 794 1075 851 l 1075 206 q 1047 103 1075 150 q 972 28 1018 56 q 869 0 925 0 l 281 0 m 290 217 l 857 217 q 857 217 857 217 q 857 217 857 217 l 857 783 q 857 783 857 783 q 857 783 857 783 l 290 783 q 290 783 290 783 q 290 783 290 783 l 290 217 q 290 217 290 217 q 290 217 290 217 m 694 1094 q 540 1153 615 1094 q 421 1211 468 1211 l 314 1211 l 314 1372 l 438 1372 q 579 1313 514 1372 q 707 1253 644 1253 l 836 1253 l 836 1094 l 694 1094 l 694 1094 z "},"Œ":{"ha":1908,"x_min":74,"x_max":1781,"o":"m 279 0 q 176 28 224 0 q 101 103 129 56 q 74 206 74 150 l 74 794 q 101 898 74 851 q 176 972 129 944 q 279 1000 224 1000 l 1781 1000 l 1781 783 l 1074 783 l 1074 608 l 1642 608 l 1642 392 l 1074 392 l 1074 217 l 1781 217 l 1781 0 l 279 0 m 292 217 l 858 217 q 858 217 858 217 q 858 217 858 217 l 858 783 q 858 783 858 783 q 858 783 858 783 l 292 783 q 292 783 292 783 q 292 783 292 783 l 292 217 q 292 217 292 217 q 292 217 292 217 z "},"P":{"ha":1099,"x_min":78,"x_max":1078,"o":"m 78 0 l 78 999 l 871 999 q 974 971 928 999 q 1049 896 1021 943 q 1078 793 1078 849 l 1078 535 q 1049 432 1078 479 q 974 357 1021 385 q 871 329 928 329 l 293 328 l 293 0 l 78 0 m 293 546 l 860 546 q 860 546 860 546 q 860 546 860 546 l 860 783 q 860 783 860 783 q 860 783 860 783 l 293 783 q 293 783 293 783 q 293 783 293 783 l 293 546 q 293 546 293 546 q 293 546 293 546 z "},"Q":{"ha":1228,"x_min":75,"x_max":1189,"o":"m 861 0 l 861 200 l 1075 217 l 1075 217 l 1189 217 l 1189 0 l 861 0 m 281 0 q 178 28 225 0 q 103 103 131 56 q 75 206 75 150 l 75 794 q 103 898 75 851 q 178 972 131 944 q 281 1000 225 1000 l 869 1000 q 972 972 925 1000 q 1047 898 1018 944 q 1075 794 1075 851 l 1075 206 q 1047 103 1075 150 q 972 28 1018 56 q 869 0 925 0 l 281 0 m 290 217 l 857 217 q 857 217 857 217 q 857 217 857 217 l 857 783 q 857 783 857 783 q 857 783 857 783 l 290 783 q 290 783 290 783 q 290 783 290 783 l 290 217 q 290 217 290 217 q 290 217 290 217 z "},"R":{"ha":1146,"x_min":78,"x_max":1078,"o":"m 854 0 l 564 346 l 846 346 l 1076 74 l 1076 0 l 854 0 m 78 0 l 78 999 l 871 999 q 974 971 928 999 q 1049 896 1021 943 q 1078 793 1078 849 l 1078 535 q 1049 432 1078 479 q 974 357 1021 385 q 871 329 928 329 l 293 328 l 293 0 l 78 0 m 293 546 l 860 546 q 860 546 860 546 q 860 546 860 546 l 860 783 q 860 783 860 783 q 860 783 860 783 l 293 783 q 293 783 293 783 q 293 783 293 783 l 293 546 q 293 546 293 546 q 293 546 293 546 z "},"S":{"ha":1150,"x_min":75,"x_max":1075,"o":"m 281 0 q 178 28 225 0 q 103 103 131 56 q 75 206 75 150 l 75 299 l 290 299 l 290 217 q 290 217 290 217 q 290 217 290 217 l 857 217 q 857 217 857 217 q 857 217 857 217 l 857 392 q 857 392 857 392 q 857 392 857 392 l 281 392 q 178 419 225 392 q 103 494 131 447 q 75 597 75 540 l 75 794 q 103 898 75 851 q 178 972 131 944 q 281 1000 225 1000 l 869 1000 q 972 972 925 1000 q 1047 898 1018 944 q 1075 794 1075 851 l 1075 701 l 857 701 l 857 783 q 857 783 857 783 q 857 783 857 783 l 290 783 q 290 783 290 783 q 290 783 290 783 l 290 608 q 290 608 290 608 q 290 608 290 608 l 869 608 q 972 581 925 608 q 1047 506 1018 553 q 1075 403 1075 460 l 1075 206 q 1047 103 1075 150 q 972 28 1018 56 q 869 0 925 0 l 281 0 z "},"Š":{"ha":1150,"x_min":75,"x_max":1075,"o":"m 281 0 q 178 28 225 0 q 103 103 131 56 q 75 206 75 150 l 75 299 l 290 299 l 290 217 q 290 217 290 217 q 290 217 290 217 l 857 217 q 857 217 857 217 q 857 217 857 217 l 857 392 q 857 392 857 392 q 857 392 857 392 l 281 392 q 178 419 225 392 q 103 494 131 447 q 75 597 75 540 l 75 794 q 103 898 75 851 q 178 972 131 944 q 281 1000 225 1000 l 869 1000 q 972 972 925 1000 q 1047 898 1018 944 q 1075 794 1075 851 l 1075 701 l 857 701 l 857 783 q 857 783 857 783 q 857 783 857 783 l 290 783 q 290 783 290 783 q 290 783 290 783 l 290 608 q 290 608 290 608 q 290 608 290 608 l 869 608 q 972 581 925 608 q 1047 506 1018 553 q 1075 403 1075 460 l 1075 206 q 1047 103 1075 150 q 972 28 1018 56 q 869 0 925 0 l 281 0 m 506 1083 l 506 1083 l 353 1339 l 535 1339 l 572 1278 l 610 1339 l 797 1339 l 644 1083 l 506 1083 z "},"T":{"ha":1054,"x_min":28,"x_max":1028,"o":"m 419 0 l 419 0 l 419 783 l 28 783 l 28 1000 l 1028 1000 l 1028 783 l 636 783 l 636 0 l 419 0 z "},"U":{"ha":1150,"x_min":75,"x_max":1075,"o":"m 281 0 q 178 28 225 0 q 103 103 131 56 q 75 206 75 150 l 75 1000 l 290 1000 l 290 217 q 290 217 290 217 q 290 217 290 217 l 857 217 q 857 217 857 217 q 857 217 857 217 l 857 1000 l 1075 1000 l 1075 206 q 1047 103 1075 150 q 972 28 1018 56 q 869 0 925 0 l 281 0 l 281 0 z "},"Ú":{"ha":1150,"x_min":75,"x_max":1075,"o":"m 281 0 q 178 28 225 0 q 103 103 131 56 q 75 206 75 150 l 75 1000 l 290 1000 l 290 217 q 290 217 290 217 q 290 217 290 217 l 857 217 q 857 217 857 217 q 857 217 857 217 l 857 1000 l 1075 1000 l 1075 206 q 1047 103 1075 150 q 972 28 1018 56 q 869 0 925 0 l 281 0 l 281 0 m 458 1083 l 458 1083 l 529 1365 l 747 1365 l 676 1083 l 458 1083 z "},"Û":{"ha":1150,"x_min":75,"x_max":1075,"o":"m 281 0 q 178 28 225 0 q 103 103 131 56 q 75 206 75 150 l 75 1000 l 290 1000 l 290 217 q 290 217 290 217 q 290 217 290 217 l 857 217 q 857 217 857 217 q 857 217 857 217 l 857 1000 l 1075 1000 l 1075 206 q 1047 103 1075 150 q 972 28 1018 56 q 869 0 925 0 l 281 0 l 281 0 m 354 1083 l 354 1083 l 507 1339 l 646 1339 l 799 1083 l 613 1083 l 574 1144 l 539 1083 l 354 1083 z "},"Ü":{"ha":1150,"x_min":75,"x_max":1075,"o":"m 281 0 q 178 28 225 0 q 103 103 131 56 q 75 206 75 150 l 75 1000 l 290 1000 l 290 217 q 290 217 290 217 q 290 217 290 217 l 857 217 q 857 217 857 217 q 857 217 857 217 l 857 1000 l 1075 1000 l 1075 206 q 1047 103 1075 150 q 972 28 1018 56 q 869 0 925 0 l 281 0 l 281 0 m 617 1083 l 617 1083 l 617 1297 l 831 1297 l 831 1083 l 617 1083 m 321 1083 l 321 1083 l 321 1297 l 533 1297 l 533 1083 l 321 1083 z "},"Ù":{"ha":1150,"x_min":75,"x_max":1075,"o":"m 281 0 q 178 28 225 0 q 103 103 131 56 q 75 206 75 150 l 75 1000 l 290 1000 l 290 217 q 290 217 290 217 q 290 217 290 217 l 857 217 q 857 217 857 217 q 857 217 857 217 l 857 1000 l 1075 1000 l 1075 206 q 1047 103 1075 150 q 972 28 1018 56 q 869 0 925 0 l 281 0 l 281 0 m 478 1083 l 478 1083 l 407 1365 l 625 1365 l 696 1083 l 478 1083 z "},"V":{"ha":1393,"x_min":49,"x_max":1386,"o":"m 628 0 l 628 0 l 49 1000 l 299 1000 l 718 274 l 1138 1000 l 1386 1000 l 807 0 l 628 0 z "},"W":{"ha":1638,"x_min":49,"x_max":1578,"o":"m 413 0 l 413 0 l 49 1000 l 278 1000 l 496 404 l 714 1000 l 913 1000 l 1132 404 l 1350 1000 l 1578 1000 l 1214 0 l 1049 0 l 813 643 l 578 0 l 413 0 z "},"X":{"ha":1128,"x_min":64,"x_max":1064,"o":"m 64 0 l 64 0 l 64 74 l 421 500 l 64 926 l 64 1000 l 288 1000 l 565 671 l 840 1000 l 1064 1000 l 1064 926 l 706 500 l 1064 75 l 1064 0 l 840 0 l 563 328 l 288 0 l 64 0 z "},"Y":{"ha":1119,"x_min":-12,"x_max":1131,"o":"m 450 0 l 450 0 l 450 374 l -12 1000 l 244 1000 l 558 606 l 871 1000 l 1131 1000 l 667 372 l 667 0 l 450 0 z "},"Ý":{"ha":1119,"x_min":-12,"x_max":1131,"o":"m 450 0 l 450 0 l 450 374 l -12 1000 l 244 1000 l 558 606 l 871 1000 l 1131 1000 l 667 372 l 667 0 l 450 0 m 442 1083 l 442 1083 l 513 1365 l 731 1365 l 660 1083 l 442 1083 z "},"Ÿ":{"ha":1119,"x_min":-12,"x_max":1131,"o":"m 450 0 l 450 0 l 450 374 l -12 1000 l 244 1000 l 558 606 l 871 1000 l 1131 1000 l 667 372 l 667 0 l 450 0 m 600 1083 l 600 1083 l 600 1297 l 814 1297 l 814 1083 l 600 1083 m 304 1083 l 304 1083 l 304 1297 l 517 1297 l 517 1083 l 304 1083 z "},"Z":{"ha":1140,"x_min":71,"x_max":1071,"o":"m 71 0 l 71 0 l 71 221 l 740 783 l 71 783 l 71 1000 l 1071 1000 l 1071 779 l 401 217 l 1071 217 l 1071 0 l 71 0 z "},"Ž":{"ha":1140,"x_min":71,"x_max":1071,"o":"m 71 0 l 71 0 l 71 221 l 740 783 l 71 783 l 71 1000 l 1071 1000 l 1071 779 l 401 217 l 1071 217 l 1071 0 l 71 0 m 501 1083 l 501 1083 l 349 1339 l 531 1339 l 568 1278 l 606 1339 l 793 1339 l 640 1083 l 501 1083 z "},"a":{"ha":964,"x_min":72,"x_max":889,"o":"m 274 0 q 172 28 218 0 q 99 101 126 56 q 72 201 72 147 l 72 510 l 676 510 l 676 593 q 676 593 676 593 q 676 593 676 593 l 72 593 l 72 806 l 688 806 q 789 778 743 806 q 862 704 835 750 q 889 604 889 658 l 889 0 l 274 0 m 285 213 l 676 213 l 676 324 l 285 324 l 285 213 q 285 213 285 213 q 285 213 285 213 z "},"á":{"ha":964,"x_min":72,"x_max":889,"o":"m 274 0 q 172 28 218 0 q 99 101 126 56 q 72 201 72 147 l 72 510 l 676 510 l 676 593 q 676 593 676 593 q 676 593 676 593 l 72 593 l 72 806 l 688 806 q 789 778 743 806 q 862 704 835 750 q 889 604 889 658 l 889 0 l 274 0 m 285 213 l 676 213 l 676 324 l 285 324 l 285 213 q 285 213 285 213 q 285 213 285 213 m 393 889 l 393 889 l 464 1171 l 682 1171 l 611 889 l 393 889 z "},"â":{"ha":964,"x_min":72,"x_max":889,"o":"m 274 0 q 172 28 218 0 q 99 101 126 56 q 72 201 72 147 l 72 510 l 676 510 l 676 593 q 676 593 676 593 q 676 593 676 593 l 72 593 l 72 806 l 688 806 q 789 778 743 806 q 862 704 835 750 q 889 604 889 658 l 889 0 l 274 0 m 285 213 l 676 213 l 676 324 l 285 324 l 285 213 q 285 213 285 213 q 285 213 285 213 m 289 889 l 289 889 l 442 1144 l 581 1144 l 733 889 l 547 889 l 508 950 l 474 889 l 289 889 z "},"ä":{"ha":964,"x_min":72,"x_max":889,"o":"m 274 0 q 172 28 218 0 q 99 101 126 56 q 72 201 72 147 l 72 510 l 676 510 l 676 593 q 676 593 676 593 q 676 593 676 593 l 72 593 l 72 806 l 688 806 q 789 778 743 806 q 862 704 835 750 q 889 604 889 658 l 889 0 l 274 0 m 285 213 l 676 213 l 676 324 l 285 324 l 285 213 q 285 213 285 213 q 285 213 285 213 m 551 889 l 551 889 l 551 1103 l 765 1103 l 765 889 l 551 889 m 256 889 l 256 889 l 256 1103 l 468 1103 l 468 889 l 256 889 z "},"à":{"ha":964,"x_min":72,"x_max":889,"o":"m 274 0 q 172 28 218 0 q 99 101 126 56 q 72 201 72 147 l 72 510 l 676 510 l 676 593 q 676 593 676 593 q 676 593 676 593 l 72 593 l 72 806 l 688 806 q 789 778 743 806 q 862 704 835 750 q 889 604 889 658 l 889 0 l 274 0 m 285 213 l 676 213 l 676 324 l 285 324 l 285 213 q 285 213 285 213 q 285 213 285 213 m 413 889 l 413 889 l 342 1171 l 560 1171 l 631 889 l 413 889 z "},"å":{"ha":964,"x_min":72,"x_max":889,"o":"m 274 0 q 172 28 218 0 q 99 101 126 56 q 72 201 72 147 l 72 510 l 676 510 l 676 593 q 676 593 676 593 q 676 593 676 593 l 72 593 l 72 806 l 688 806 q 789 778 743 806 q 862 704 835 750 q 889 604 889 658 l 889 0 l 274 0 m 285 213 l 676 213 l 676 324 l 285 324 l 285 213 q 285 213 285 213 q 285 213 285 213 m 475 889 q 400 920 432 889 q 368 994 368 951 l 368 1063 q 400 1137 368 1106 q 475 1168 432 1168 l 546 1168 q 620 1137 589 1168 q 651 1063 651 1106 l 651 994 q 620 920 651 951 q 546 889 589 889 l 475 889 m 475 985 l 544 985 q 544 985 544 985 q 544 985 544 985 l 544 1060 q 544 1060 544 1060 q 544 1060 544 1060 l 475 1060 q 475 1060 475 1060 q 475 1060 475 1060 l 475 985 q 475 985 475 985 q 475 985 475 985 z "},"ã":{"ha":964,"x_min":72,"x_max":889,"o":"m 274 0 q 172 28 218 0 q 99 101 126 56 q 72 201 72 147 l 72 510 l 676 510 l 676 593 q 676 593 676 593 q 676 593 676 593 l 72 593 l 72 806 l 688 806 q 789 778 743 806 q 862 704 835 750 q 889 604 889 658 l 889 0 l 274 0 m 285 213 l 676 213 l 676 324 l 285 324 l 285 213 q 285 213 285 213 q 285 213 285 213 m 629 900 q 475 958 550 900 q 356 1017 403 1017 l 249 1017 l 249 1178 l 372 1178 q 514 1118 449 1178 q 642 1058 579 1058 l 771 1058 l 771 900 l 629 900 l 629 900 z "},"æ":{"ha":1636,"x_min":72,"x_max":1496,"o":"m 274 0 q 172 28 218 0 q 99 101 126 56 q 72 201 72 147 l 72 510 l 676 510 l 676 593 q 676 593 676 593 q 676 593 676 593 l 72 593 l 72 806 l 1294 806 q 1396 778 1350 806 q 1469 705 1442 750 q 1496 604 1496 660 l 1496 296 l 892 296 l 892 213 q 892 213 892 213 q 892 213 892 213 l 1496 213 l 1496 0 l 274 0 m 285 213 l 676 213 l 676 324 l 285 324 l 285 213 q 285 213 285 213 q 285 213 285 213 m 892 482 l 1283 482 l 1283 593 q 1283 593 1283 593 q 1283 593 1283 593 l 892 593 q 892 593 892 593 q 892 593 892 593 l 892 482 z "},"b":{"ha":926,"x_min":75,"x_max":892,"o":"m 75 0 l 75 0 l 75 1069 l 288 1069 l 288 806 l 690 806 q 792 778 746 806 q 865 704 838 750 q 892 604 892 658 l 892 201 q 865 101 892 147 q 792 28 838 56 q 690 0 746 0 l 75 0 m 288 213 l 679 213 q 679 213 679 213 q 679 213 679 213 l 679 593 q 679 593 679 593 q 679 593 679 593 l 288 593 q 288 593 288 593 q 288 593 288 593 l 288 213 q 288 213 288 213 q 288 213 288 213 z "},"c":{"ha":965,"x_min":71,"x_max":888,"o":"m 272 0 q 172 28 218 0 q 99 101 126 56 q 71 201 71 147 l 71 604 q 99 704 71 658 q 172 778 126 750 q 272 806 218 806 l 886 806 l 886 593 l 283 593 q 283 593 283 593 q 283 593 283 593 l 283 213 q 283 213 283 213 q 283 213 283 213 l 888 213 l 888 0 l 272 0 l 272 0 z "},"ç":{"ha":965,"x_min":71,"x_max":888,"o":"m 272 0 q 172 28 218 0 q 99 101 126 56 q 71 201 71 147 l 71 604 q 99 704 71 658 q 172 778 126 750 q 272 806 218 806 l 886 806 l 886 593 l 283 593 q 283 593 283 593 q 283 593 283 593 l 283 213 q 283 213 283 213 q 283 213 283 213 l 888 213 l 888 0 l 272 0 l 272 0 m 347 -217 l 419 21 l 638 21 l 565 -217 l 347 -217 z "},"d":{"ha":926,"x_min":32,"x_max":850,"o":"m 233 0 q 132 28 178 0 q 59 101 86 56 q 32 201 32 147 l 32 604 q 59 704 32 658 q 132 778 86 750 q 233 806 178 806 l 638 806 l 638 1069 l 850 1069 l 850 0 l 233 0 l 233 0 m 246 213 l 638 213 q 638 213 638 213 q 638 213 638 213 l 638 593 q 638 593 638 593 q 638 593 638 593 l 246 593 q 246 593 246 593 q 246 593 246 593 l 246 213 q 246 213 246 213 q 246 213 246 213 z "},"e":{"ha":961,"x_min":71,"x_max":888,"o":"m 272 0 q 172 28 218 0 q 99 101 126 56 q 71 201 71 147 l 71 604 q 99 704 71 658 q 172 778 126 750 q 272 806 218 806 l 686 806 q 788 778 742 806 q 860 704 833 750 q 888 604 888 658 l 888 296 l 283 296 l 283 213 q 283 213 283 213 q 283 213 283 213 l 888 213 l 888 0 l 272 0 l 272 0 m 283 482 l 675 482 l 675 593 q 675 593 675 593 q 675 593 675 593 l 283 593 q 283 593 283 593 q 283 593 283 593 l 283 482 z "},"é":{"ha":961,"x_min":71,"x_max":888,"o":"m 272 0 q 172 28 218 0 q 99 101 126 56 q 71 201 71 147 l 71 604 q 99 704 71 658 q 172 778 126 750 q 272 806 218 806 l 686 806 q 788 778 742 806 q 860 704 833 750 q 888 604 888 658 l 888 296 l 283 296 l 283 213 q 283 213 283 213 q 283 213 283 213 l 888 213 l 888 0 l 272 0 l 272 0 m 283 482 l 675 482 l 675 593 q 675 593 675 593 q 675 593 675 593 l 283 593 q 283 593 283 593 q 283 593 283 593 l 283 482 m 363 889 l 363 889 l 433 1171 l 651 1171 l 581 889 l 363 889 z "},"ê":{"ha":961,"x_min":71,"x_max":888,"o":"m 272 0 q 172 28 218 0 q 99 101 126 56 q 71 201 71 147 l 71 604 q 99 704 71 658 q 172 778 126 750 q 272 806 218 806 l 686 806 q 788 778 742 806 q 860 704 833 750 q 888 604 888 658 l 888 296 l 283 296 l 283 213 q 283 213 283 213 q 283 213 283 213 l 888 213 l 888 0 l 272 0 l 272 0 m 283 482 l 675 482 l 675 593 q 675 593 675 593 q 675 593 675 593 l 283 593 q 283 593 283 593 q 283 593 283 593 l 283 482 m 258 889 l 258 889 l 411 1144 l 550 1144 l 703 889 l 517 889 l 478 950 l 443 889 l 258 889 z "},"ë":{"ha":961,"x_min":71,"x_max":888,"o":"m 272 0 q 172 28 218 0 q 99 101 126 56 q 71 201 71 147 l 71 604 q 99 704 71 658 q 172 778 126 750 q 272 806 218 806 l 686 806 q 788 778 742 806 q 860 704 833 750 q 888 604 888 658 l 888 296 l 283 296 l 283 213 q 283 213 283 213 q 283 213 283 213 l 888 213 l 888 0 l 272 0 l 272 0 m 283 482 l 675 482 l 675 593 q 675 593 675 593 q 675 593 675 593 l 283 593 q 283 593 283 593 q 283 593 283 593 l 283 482 m 521 889 l 521 889 l 521 1103 l 735 1103 l 735 889 l 521 889 m 225 889 l 225 889 l 225 1103 l 438 1103 l 438 889 l 225 889 z "},"è":{"ha":961,"x_min":71,"x_max":888,"o":"m 272 0 q 172 28 218 0 q 99 101 126 56 q 71 201 71 147 l 71 604 q 99 704 71 658 q 172 778 126 750 q 272 806 218 806 l 686 806 q 788 778 742 806 q 860 704 833 750 q 888 604 888 658 l 888 296 l 283 296 l 283 213 q 283 213 283 213 q 283 213 283 213 l 888 213 l 888 0 l 272 0 l 272 0 m 283 482 l 675 482 l 675 593 q 675 593 675 593 q 675 593 675 593 l 283 593 q 283 593 283 593 q 283 593 283 593 l 283 482 m 382 889 l 382 889 l 311 1171 l 529 1171 l 600 889 l 382 889 z "},"f":{"ha":611,"x_min":74,"x_max":585,"o":"m 74 0 l 74 0 l 74 868 q 101 968 74 922 q 175 1042 129 1014 q 276 1069 221 1069 l 585 1069 l 585 856 l 286 856 q 286 856 286 856 q 286 856 286 856 l 286 806 l 585 806 l 585 593 l 286 593 l 286 0 l 74 0 z "},"g":{"ha":949,"x_min":57,"x_max":875,"o":"m 185 -318 l 185 -318 l 185 -104 l 663 -104 q 663 -104 663 -104 q 663 -104 663 -104 l 663 0 l 260 0 q 158 28 204 0 q 85 101 113 56 q 57 201 57 147 l 57 604 q 85 704 57 658 q 158 778 113 750 q 260 806 204 806 l 674 806 q 775 778 729 806 q 848 704 821 750 q 875 604 875 658 l 875 -117 q 848 -218 875 -172 q 775 -291 821 -264 q 674 -318 729 -318 l 185 -318 m 269 213 l 663 213 q 663 213 663 213 q 663 213 663 213 l 663 593 q 663 593 663 593 q 663 593 663 593 l 269 593 q 269 593 269 593 q 269 593 269 593 l 269 213 q 269 213 269 213 q 269 213 269 213 z "},"h":{"ha":928,"x_min":75,"x_max":892,"o":"m 75 0 l 75 0 l 75 1069 l 288 1069 l 288 806 l 690 806 q 790 778 744 806 q 864 704 836 750 q 892 604 892 658 l 892 0 l 679 0 l 679 593 q 679 593 679 593 q 679 593 679 593 l 288 593 q 288 593 288 593 q 288 593 288 593 l 288 0 l 75 0 z "},"i":{"ha":318,"x_min":72,"x_max":285,"o":"m 72 0 l 72 0 l 72 806 l 285 806 l 285 0 l 72 0 m 72 856 l 72 856 l 72 1069 l 285 1069 l 285 856 l 72 856 z "},"ı":{"ha":297,"x_min":43,"x_max":256,"o":"m 43 0 l 43 0 l 43 806 l 256 806 l 256 0 l 43 0 z "},"í":{"ha":297,"x_min":32,"x_max":321,"o":"m 43 0 l 43 0 l 43 806 l 256 806 l 256 0 l 43 0 m 32 889 l 32 889 l 103 1171 l 321 1171 l 250 889 l 32 889 z "},"î":{"ha":297,"x_min":-72,"x_max":372,"o":"m 43 0 l 43 0 l 43 806 l 256 806 l 256 0 l 43 0 m -72 889 l -72 889 l 81 1144 l 219 1144 l 372 889 l 186 889 l 147 950 l 113 889 l -72 889 z "},"ï":{"ha":297,"x_min":-106,"x_max":404,"o":"m 43 0 l 43 0 l 43 806 l 256 806 l 256 0 l 43 0 m 190 889 l 190 889 l 190 1103 l 404 1103 l 404 889 l 190 889 m -106 889 l -106 889 l -106 1103 l 107 1103 l 107 889 l -106 889 z "},"ì":{"ha":297,"x_min":-19,"x_max":269,"o":"m 43 0 l 43 0 l 43 806 l 256 806 l 256 0 l 43 0 m 51 889 l 51 889 l -19 1171 l 199 1171 l 269 889 l 51 889 z "},"j":{"ha":332,"x_min":-260,"x_max":293,"o":"m -260 -289 l -260 -289 l -260 -75 l 81 -75 q 81 -75 81 -75 q 81 -75 81 -75 l 81 806 l 293 806 l 293 -87 q 265 -189 293 -143 q 192 -262 238 -235 q 90 -289 146 -289 l -260 -289 m 81 856 l 81 856 l 81 1069 l 293 1069 l 293 856 l 81 856 z "},"k":{"ha":897,"x_min":75,"x_max":883,"o":"m 75 0 l 75 0 l 75 1069 l 288 1069 l 288 510 l 396 510 l 669 806 l 883 806 l 883 733 l 583 403 l 883 72 l 883 0 l 669 0 l 396 296 l 288 296 l 288 0 l 75 0 z "},"l":{"ha":468,"x_min":72,"x_max":449,"o":"m 274 0 q 174 28 219 0 q 100 101 128 56 q 72 201 72 147 l 72 1071 l 286 1071 l 286 213 q 286 213 286 213 q 286 213 286 213 l 449 213 l 449 0 l 274 0 l 274 0 z "},"m":{"ha":1358,"x_min":75,"x_max":1246,"o":"m 75 0 l 75 0 l 75 806 l 1044 806 q 1146 778 1100 806 q 1219 704 1192 750 q 1246 604 1246 658 l 1246 0 l 1035 0 l 1035 593 q 1035 593 1035 593 q 1035 593 1035 593 l 768 593 q 768 593 768 593 q 768 593 768 593 l 768 0 l 554 0 l 554 593 q 554 593 554 593 q 554 593 554 593 l 288 593 q 288 593 288 593 q 288 593 288 593 l 288 0 l 75 0 z "},"n":{"ha":967,"x_min":75,"x_max":892,"o":"m 75 0 l 75 0 l 75 806 l 690 806 q 792 778 746 806 q 865 704 838 750 q 892 604 892 658 l 892 0 l 679 0 l 679 593 q 679 593 679 593 q 679 593 679 593 l 288 593 q 288 593 288 593 q 288 593 288 593 l 288 0 l 75 0 z "},"ñ":{"ha":967,"x_min":75,"x_max":892,"o":"m 75 0 l 75 0 l 75 806 l 690 806 q 792 778 746 806 q 865 704 838 750 q 892 604 892 658 l 892 0 l 679 0 l 679 593 q 679 593 679 593 q 679 593 679 593 l 288 593 q 288 593 288 593 q 288 593 288 593 l 288 0 l 75 0 m 586 900 q 432 958 507 900 q 313 1017 360 1017 l 206 1017 l 206 1178 l 329 1178 q 471 1118 406 1178 q 599 1058 536 1058 l 728 1058 l 728 900 l 586 900 l 586 900 z "},"o":{"ha":961,"x_min":71,"x_max":888,"o":"m 272 0 q 172 28 218 0 q 99 101 126 56 q 71 201 71 147 l 71 604 q 99 704 71 658 q 172 778 126 750 q 272 806 218 806 l 686 806 q 788 778 742 806 q 860 704 833 750 q 888 604 888 658 l 888 201 q 860 101 888 147 q 788 28 833 56 q 686 0 742 0 l 272 0 l 272 0 m 283 213 l 675 213 q 675 213 675 213 q 675 213 675 213 l 675 593 q 675 593 675 593 q 675 593 675 593 l 283 593 q 283 593 283 593 q 283 593 283 593 l 283 213 q 283 213 283 213 q 283 213 283 213 z "},"ó":{"ha":961,"x_min":71,"x_max":888,"o":"m 272 0 q 172 28 218 0 q 99 101 126 56 q 71 201 71 147 l 71 604 q 99 704 71 658 q 172 778 126 750 q 272 806 218 806 l 686 806 q 788 778 742 806 q 860 704 833 750 q 888 604 888 658 l 888 201 q 860 101 888 147 q 788 28 833 56 q 686 0 742 0 l 272 0 l 272 0 m 283 213 l 675 213 q 675 213 675 213 q 675 213 675 213 l 675 593 q 675 593 675 593 q 675 593 675 593 l 283 593 q 283 593 283 593 q 283 593 283 593 l 283 213 q 283 213 283 213 q 283 213 283 213 m 363 886 l 363 886 l 433 1168 l 651 1168 l 581 886 l 363 886 z "},"ô":{"ha":961,"x_min":71,"x_max":888,"o":"m 272 0 q 172 28 218 0 q 99 101 126 56 q 71 201 71 147 l 71 604 q 99 704 71 658 q 172 778 126 750 q 272 806 218 806 l 686 806 q 788 778 742 806 q 860 704 833 750 q 888 604 888 658 l 888 201 q 860 101 888 147 q 788 28 833 56 q 686 0 742 0 l 272 0 l 272 0 m 283 213 l 675 213 q 675 213 675 213 q 675 213 675 213 l 675 593 q 675 593 675 593 q 675 593 675 593 l 283 593 q 283 593 283 593 q 283 593 283 593 l 283 213 q 283 213 283 213 q 283 213 283 213 m 258 886 l 258 886 l 411 1142 l 550 1142 l 703 886 l 517 886 l 478 947 l 443 886 l 258 886 z "},"ö":{"ha":961,"x_min":71,"x_max":888,"o":"m 272 0 q 172 28 218 0 q 99 101 126 56 q 71 201 71 147 l 71 604 q 99 704 71 658 q 172 778 126 750 q 272 806 218 806 l 686 806 q 788 778 742 806 q 860 704 833 750 q 888 604 888 658 l 888 201 q 860 101 888 147 q 788 28 833 56 q 686 0 742 0 l 272 0 l 272 0 m 283 213 l 675 213 q 675 213 675 213 q 675 213 675 213 l 675 593 q 675 593 675 593 q 675 593 675 593 l 283 593 q 283 593 283 593 q 283 593 283 593 l 283 213 q 283 213 283 213 q 283 213 283 213 m 521 886 l 521 886 l 521 1100 l 735 1100 l 735 886 l 521 886 m 225 886 l 225 886 l 225 1100 l 438 1100 l 438 886 l 225 886 z "},"ò":{"ha":961,"x_min":71,"x_max":888,"o":"m 272 0 q 172 28 218 0 q 99 101 126 56 q 71 201 71 147 l 71 604 q 99 704 71 658 q 172 778 126 750 q 272 806 218 806 l 686 806 q 788 778 742 806 q 860 704 833 750 q 888 604 888 658 l 888 201 q 860 101 888 147 q 788 28 833 56 q 686 0 742 0 l 272 0 l 272 0 m 283 213 l 675 213 q 675 213 675 213 q 675 213 675 213 l 675 593 q 675 593 675 593 q 675 593 675 593 l 283 593 q 283 593 283 593 q 283 593 283 593 l 283 213 q 283 213 283 213 q 283 213 283 213 m 382 886 l 382 886 l 311 1168 l 529 1168 l 600 886 l 382 886 z "},"õ":{"ha":961,"x_min":71,"x_max":888,"o":"m 272 0 q 172 28 218 0 q 99 101 126 56 q 71 201 71 147 l 71 604 q 99 704 71 658 q 172 778 126 750 q 272 806 218 806 l 686 806 q 788 778 742 806 q 860 704 833 750 q 888 604 888 658 l 888 201 q 860 101 888 147 q 788 28 833 56 q 686 0 742 0 l 272 0 l 272 0 m 283 213 l 675 213 q 675 213 675 213 q 675 213 675 213 l 675 593 q 675 593 675 593 q 675 593 675 593 l 283 593 q 283 593 283 593 q 283 593 283 593 l 283 213 q 283 213 283 213 q 283 213 283 213 m 599 897 q 444 956 519 897 q 325 1014 372 1014 l 218 1014 l 218 1175 l 342 1175 q 483 1115 418 1175 q 611 1056 549 1056 l 740 1056 l 740 897 l 599 897 l 599 897 z "},"œ":{"ha":1635,"x_min":72,"x_max":1494,"o":"m 275 0 q 173 28 219 0 q 99 101 126 56 q 72 201 72 147 l 72 604 q 99 704 72 658 q 173 778 126 750 q 275 806 219 806 l 1294 806 q 1395 778 1350 806 q 1467 704 1440 750 q 1494 604 1494 658 l 1494 296 l 890 296 l 890 213 q 890 213 890 213 q 890 213 890 213 l 1494 213 l 1494 0 l 275 0 l 275 0 m 285 213 l 285 213 l 678 213 q 678 213 678 213 q 678 213 678 213 l 678 593 q 678 593 678 593 q 678 593 678 593 l 285 593 q 285 593 285 593 q 285 593 285 593 l 285 213 q 285 213 285 213 q 285 213 285 213 m 890 482 l 890 482 l 1282 482 l 1282 593 q 1282 593 1282 593 q 1282 593 1282 593 l 890 593 q 890 593 890 593 q 890 593 890 593 l 890 482 z "},"p":{"ha":922,"x_min":75,"x_max":892,"o":"m 75 -319 l 75 -319 l 75 806 l 690 806 q 792 778 746 806 q 865 704 838 750 q 892 604 892 658 l 892 201 q 865 101 892 147 q 792 28 838 56 q 690 0 746 0 l 288 0 l 288 -319 l 75 -319 m 288 213 l 679 213 q 679 213 679 213 q 679 213 679 213 l 679 593 q 679 593 679 593 q 679 593 679 593 l 288 593 q 288 593 288 593 q 288 593 288 593 l 288 213 q 288 213 288 213 q 288 213 288 213 z "},"q":{"ha":922,"x_min":28,"x_max":846,"o":"m 633 -319 l 633 -319 l 633 0 l 229 0 q 128 28 174 0 q 55 101 82 56 q 28 201 28 147 l 28 604 q 55 704 28 658 q 128 778 82 750 q 229 806 174 806 l 846 806 l 846 -319 l 633 -319 m 242 213 l 633 213 q 633 213 633 213 q 633 213 633 213 l 633 593 q 633 593 633 593 q 633 593 633 593 l 242 593 q 242 593 242 593 q 242 593 242 593 l 242 213 q 242 213 242 213 q 242 213 242 213 z "},"r":{"ha":731,"x_min":72,"x_max":719,"o":"m 72 0 l 72 0 l 72 604 q 100 704 72 658 q 174 778 128 750 q 275 806 219 806 l 719 806 l 719 593 l 285 593 q 285 593 285 593 q 285 593 285 593 l 285 0 l 72 0 z "},"s":{"ha":953,"x_min":67,"x_max":885,"o":"m 268 0 q 168 28 214 0 q 94 101 122 56 q 67 201 67 147 l 67 242 l 279 242 l 279 213 q 279 213 279 213 q 279 213 279 213 l 671 213 q 671 213 671 213 q 671 213 671 213 l 671 296 q 671 296 671 296 q 671 296 671 296 l 268 296 q 168 324 214 296 q 94 397 122 351 q 67 497 67 443 l 67 604 q 94 704 67 658 q 168 778 122 750 q 268 806 214 806 l 682 806 q 783 778 738 806 q 857 704 829 750 q 885 604 885 658 l 885 564 l 671 564 l 671 593 q 671 593 671 593 q 671 593 671 593 l 279 593 q 279 593 279 593 q 279 593 279 593 l 279 510 q 279 510 279 510 q 279 510 279 510 l 682 510 q 783 482 738 510 q 857 408 829 454 q 885 308 885 363 l 885 201 q 857 101 885 147 q 783 28 829 56 q 682 0 738 0 l 268 0 l 268 0 z "},"š":{"ha":953,"x_min":67,"x_max":885,"o":"m 268 0 q 168 28 214 0 q 94 101 122 56 q 67 201 67 147 l 67 242 l 279 242 l 279 213 q 279 213 279 213 q 279 213 279 213 l 671 213 q 671 213 671 213 q 671 213 671 213 l 671 296 q 671 296 671 296 q 671 296 671 296 l 268 296 q 168 324 214 296 q 94 397 122 351 q 67 497 67 443 l 67 604 q 94 704 67 658 q 168 778 122 750 q 268 806 214 806 l 682 806 q 783 778 738 806 q 857 704 829 750 q 885 604 885 658 l 885 564 l 671 564 l 671 593 q 671 593 671 593 q 671 593 671 593 l 279 593 q 279 593 279 593 q 279 593 279 593 l 279 510 q 279 510 279 510 q 279 510 279 510 l 682 510 q 783 482 738 510 q 857 408 829 454 q 885 308 885 363 l 885 201 q 857 101 885 147 q 783 28 829 56 q 682 0 738 0 l 268 0 l 268 0 m 403 889 l 403 889 l 250 1144 l 432 1144 l 469 1083 l 507 1144 l 694 1144 l 542 889 l 403 889 z "},"ß":{"ha":1157,"x_min":79,"x_max":1061,"o":"m 79 0 l 79 0 l 79 799 q 107 900 79 854 q 181 973 135 946 q 282 1000 226 1000 l 858 1000 q 951 978 908 1000 q 1024 919 994 957 q 1061 835 1053 882 l 1061 599 q 1038 503 1061 547 q 1061 408 1061 460 l 1061 201 q 1033 101 1061 147 q 960 28 1006 56 q 858 0 914 0 l 379 0 l 379 213 l 849 213 q 849 213 849 213 q 849 213 849 213 l 849 396 q 849 396 849 396 q 849 396 849 396 l 379 396 l 379 596 l 849 596 q 849 596 849 596 q 849 596 849 596 l 849 786 q 849 786 849 786 q 849 786 849 786 l 292 786 q 292 786 292 786 q 292 786 292 786 l 292 0 l 79 0 z "},"t":{"ha":626,"x_min":74,"x_max":585,"o":"m 276 0 q 175 28 221 0 q 101 101 129 56 q 74 201 74 147 l 74 1044 l 286 1044 l 286 806 l 585 806 l 585 593 l 286 593 l 286 213 q 286 213 286 213 q 286 213 286 213 l 585 213 l 585 0 l 276 0 l 276 0 z "},"u":{"ha":965,"x_min":74,"x_max":890,"o":"m 275 0 q 174 28 219 0 q 101 101 128 56 q 74 201 74 147 l 74 806 l 286 806 l 286 213 q 286 213 286 213 q 286 213 286 213 l 678 213 q 678 213 678 213 q 678 213 678 213 l 678 806 l 890 806 l 890 201 q 863 101 890 147 q 790 28 836 56 q 689 0 744 0 l 275 0 l 275 0 z "},"ú":{"ha":965,"x_min":74,"x_max":890,"o":"m 275 0 q 174 28 219 0 q 101 101 128 56 q 74 201 74 147 l 74 806 l 286 806 l 286 213 q 286 213 286 213 q 286 213 286 213 l 678 213 q 678 213 678 213 q 678 213 678 213 l 678 806 l 890 806 l 890 201 q 863 101 890 147 q 790 28 836 56 q 689 0 744 0 l 275 0 l 275 0 m 365 888 l 365 888 l 436 1169 l 654 1169 l 583 888 l 365 888 z "},"û":{"ha":965,"x_min":74,"x_max":890,"o":"m 275 0 q 174 28 219 0 q 101 101 128 56 q 74 201 74 147 l 74 806 l 286 806 l 286 213 q 286 213 286 213 q 286 213 286 213 l 678 213 q 678 213 678 213 q 678 213 678 213 l 678 806 l 890 806 l 890 201 q 863 101 890 147 q 790 28 836 56 q 689 0 744 0 l 275 0 l 275 0 m 261 888 l 261 888 l 414 1143 l 553 1143 l 706 888 l 519 888 l 481 949 l 446 888 l 261 888 z "},"ü":{"ha":965,"x_min":74,"x_max":890,"o":"m 275 0 q 174 28 219 0 q 101 101 128 56 q 74 201 74 147 l 74 806 l 286 806 l 286 213 q 286 213 286 213 q 286 213 286 213 l 678 213 q 678 213 678 213 q 678 213 678 213 l 678 806 l 890 806 l 890 201 q 863 101 890 147 q 790 28 836 56 q 689 0 744 0 l 275 0 l 275 0 m 524 888 l 524 888 l 524 1101 l 738 1101 l 738 888 l 524 888 m 228 888 l 228 888 l 228 1101 l 440 1101 l 440 888 l 228 888 z "},"ù":{"ha":965,"x_min":74,"x_max":890,"o":"m 275 0 q 174 28 219 0 q 101 101 128 56 q 74 201 74 147 l 74 806 l 286 806 l 286 213 q 286 213 286 213 q 286 213 286 213 l 678 213 q 678 213 678 213 q 678 213 678 213 l 678 806 l 890 806 l 890 201 q 863 101 890 147 q 790 28 836 56 q 689 0 744 0 l 275 0 l 275 0 m 385 888 l 385 888 l 314 1169 l 532 1169 l 603 888 l 385 888 z "},"v":{"ha":1097,"x_min":29,"x_max":1099,"o":"m 472 0 l 472 0 l 29 806 l 274 806 l 564 271 l 854 806 l 1099 806 l 654 0 l 472 0 z "},"w":{"ha":1463,"x_min":49,"x_max":1415,"o":"m 365 0 l 365 0 l 49 806 l 274 806 l 447 388 l 629 806 l 835 806 l 1029 382 l 1190 806 l 1415 806 l 1113 0 l 951 0 l 733 481 l 525 0 l 365 0 z "},"x":{"ha":961,"x_min":64,"x_max":894,"o":"m 64 0 l 64 0 l 64 69 l 342 410 l 64 736 l 64 806 l 282 806 l 479 572 l 675 806 l 894 806 l 894 736 l 617 410 l 894 69 l 894 0 l 676 0 l 479 242 l 282 0 l 64 0 z "},"y":{"ha":951,"x_min":58,"x_max":876,"o":"m 186 -289 l 186 -289 l 186 -75 l 664 -75 q 664 -75 664 -75 q 664 -75 664 -75 l 664 0 l 261 0 q 160 28 206 0 q 86 101 114 56 q 58 201 58 147 l 58 803 l 271 803 l 271 213 q 271 213 271 213 q 271 213 271 213 l 664 213 q 664 213 664 213 q 664 213 664 213 l 664 803 l 876 803 l 876 -87 q 849 -189 876 -143 q 776 -262 822 -235 q 675 -289 731 -289 l 186 -289 z "},"ý":{"ha":951,"x_min":58,"x_max":876,"o":"m 186 -289 l 186 -289 l 186 -75 l 664 -75 q 664 -75 664 -75 q 664 -75 664 -75 l 664 0 l 261 0 q 160 28 206 0 q 86 101 114 56 q 58 201 58 147 l 58 803 l 271 803 l 271 213 q 271 213 271 213 q 271 213 271 213 l 664 213 q 664 213 664 213 q 664 213 664 213 l 664 803 l 876 803 l 876 -87 q 849 -189 876 -143 q 776 -262 822 -235 q 675 -289 731 -289 l 186 -289 m 350 889 l 350 889 l 421 1171 l 639 1171 l 568 889 l 350 889 z "},"ÿ":{"ha":951,"x_min":58,"x_max":876,"o":"m 186 -289 l 186 -289 l 186 -75 l 664 -75 q 664 -75 664 -75 q 664 -75 664 -75 l 664 0 l 261 0 q 160 28 206 0 q 86 101 114 56 q 58 201 58 147 l 58 803 l 271 803 l 271 213 q 271 213 271 213 q 271 213 271 213 l 664 213 q 664 213 664 213 q 664 213 664 213 l 664 803 l 876 803 l 876 -87 q 849 -189 876 -143 q 776 -262 822 -235 q 675 -289 731 -289 l 186 -289 m 508 889 l 508 889 l 508 1103 l 722 1103 l 722 889 l 508 889 m 213 889 l 213 889 l 213 1103 l 425 1103 l 425 889 l 213 889 z "},"z":{"ha":969,"x_min":75,"x_max":892,"o":"m 75 0 l 75 0 l 75 218 l 560 593 l 75 593 l 75 806 l 892 806 l 892 588 l 407 213 l 892 213 l 892 0 l 75 0 z "},"ž":{"ha":969,"x_min":75,"x_max":892,"o":"m 75 0 l 75 0 l 75 218 l 560 593 l 75 593 l 75 806 l 892 806 l 892 588 l 407 213 l 892 213 l 892 0 l 75 0 m 414 889 l 414 889 l 261 1144 l 443 1144 l 481 1083 l 518 1144 l 706 1144 l 553 889 l 414 889 z "},".":{"ha":324,"x_min":75,"x_max":288,"o":"m 75 0 l 75 0 l 75 213 l 288 213 l 288 0 l 75 0 z "},",":{"ha":338,"x_min":75,"x_max":288,"o":"m 75 -185 l 75 -185 l 75 197 l 288 197 l 288 22 q 260 -71 288 -28 q 183 -144 232 -114 q 75 -185 135 -175 z "},":":{"ha":343,"x_min":75,"x_max":288,"o":"m 75 592 l 75 592 l 75 806 l 288 806 l 288 592 l 75 592 m 75 0 l 75 0 l 75 213 l 288 213 l 288 0 l 75 0 z "},";":{"ha":369,"x_min":71,"x_max":285,"o":"m 72 -185 l 72 -185 l 72 197 l 285 197 l 285 22 q 257 -71 285 -28 q 181 -144 229 -114 q 72 -185 132 -175 m 71 592 l 71 592 l 71 806 l 285 806 l 285 592 l 71 592 z "},"…":{"ha":797,"x_min":75,"x_max":821,"o":"m 75 0 l 75 0 l 75 213 l 289 213 l 289 0 l 75 0 m 342 0 l 342 0 l 342 213 l 556 213 l 556 0 l 342 0 m 608 0 l 608 0 l 608 213 l 821 213 l 821 0 l 608 0 z "},"!":{"ha":306,"x_min":81,"x_max":293,"o":"m 81 279 l 81 279 l 81 1000 l 293 1000 l 293 279 l 81 279 m 81 0 l 81 0 l 81 213 l 293 213 l 293 0 l 81 0 z "},"¡":{"ha":292,"x_min":74,"x_max":286,"o":"m 74 0 l 74 0 l 74 731 l 286 731 l 286 0 l 74 0 m 74 768 l 74 768 l 74 981 l 286 981 l 286 768 l 74 768 z "},"?":{"ha":942,"x_min":43,"x_max":907,"o":"m 178 269 l 178 269 l 178 378 q 205 479 178 433 q 278 552 232 525 q 379 579 324 579 l 694 579 q 694 579 694 579 q 694 579 694 579 l 694 788 q 694 788 694 788 q 694 788 694 788 l 43 788 l 43 1000 l 704 1000 q 806 973 760 1000 q 879 900 851 946 q 907 799 907 854 l 907 568 q 879 467 907 513 q 806 393 851 421 q 704 365 760 365 l 392 365 q 392 365 392 365 q 392 365 392 365 l 392 269 l 178 269 m 178 0 l 178 0 l 178 213 l 392 213 l 392 0 l 178 0 z "},"¿":{"ha":938,"x_min":26,"x_max":892,"o":"m 229 0 q 128 28 174 0 q 54 101 82 56 q 26 201 26 147 l 26 433 q 54 535 26 489 q 128 608 82 581 q 229 635 174 635 l 543 635 q 543 635 543 635 q 543 635 543 635 l 543 739 l 756 739 l 756 624 q 728 522 756 568 q 654 449 700 476 q 553 421 608 421 l 239 421 q 239 421 239 421 q 239 421 239 421 l 239 213 q 239 213 239 213 q 239 213 239 213 l 892 213 l 892 0 l 229 0 l 229 0 m 543 768 l 543 768 l 543 981 l 756 981 l 756 768 l 543 768 z "},"•":{"ha":515,"x_min":150,"x_max":364,"o":"m 242 388 q 150 478 150 388 l 150 503 q 242 594 150 594 l 271 594 q 364 503 364 594 l 364 478 q 271 388 364 388 l 242 388 l 242 388 z "},"*":{"ha":717,"x_min":35,"x_max":683,"o":"m 265 363 l 265 363 l 92 488 l 188 617 l 35 665 l 100 871 l 251 819 l 251 981 l 465 981 l 465 819 l 618 871 l 683 665 l 531 617 l 626 488 l 456 363 l 357 492 l 265 363 z "},"#":{"ha":1107,"x_min":44,"x_max":1042,"o":"m 83 0 l 83 0 l 149 219 l 44 219 l 44 432 l 213 432 l 260 579 l 83 579 l 83 792 l 328 792 l 394 1000 l 614 1000 l 543 792 l 735 792 l 801 1000 l 1019 1000 l 949 792 l 1042 792 l 1042 579 l 882 579 l 835 432 l 1003 432 l 1003 219 l 765 219 l 703 0 l 488 0 l 554 219 l 360 219 l 299 0 l 83 0 m 429 432 l 429 432 l 618 432 l 665 579 l 476 579 l 429 432 z "},"/":{"ha":724,"x_min":8,"x_max":725,"o":"m 8 0 l 8 0 l 8 215 l 649 1000 l 725 1000 l 725 786 l 85 0 l 8 0 z "},"\\":{"ha":722,"x_min":7,"x_max":724,"o":"m 647 0 l 647 0 l 7 786 l 7 1000 l 83 1000 l 724 214 l 724 0 l 647 0 z "},"(":{"ha":408,"x_min":72,"x_max":365,"o":"m 274 0 q 172 28 218 0 q 99 101 126 56 q 72 201 72 147 l 72 799 q 99 900 72 854 q 172 973 126 946 q 274 1000 218 1000 l 365 1000 l 365 788 l 285 788 q 285 788 285 788 q 285 788 285 788 l 285 213 q 285 213 285 213 q 285 213 285 213 l 365 213 l 365 0 l 274 0 l 274 0 z "},")":{"ha":413,"x_min":78,"x_max":372,"o":"m 78 0 l 78 0 l 78 213 l 158 213 q 158 213 158 213 q 158 213 158 213 l 158 788 q 158 788 158 788 q 158 788 158 788 l 78 788 l 78 1000 l 171 1000 q 271 973 225 1000 q 344 900 317 946 q 372 799 372 854 l 372 201 q 344 101 372 147 q 271 28 317 56 q 171 0 225 0 l 78 0 z "},"{":{"ha":401,"x_min":32,"x_max":381,"o":"m 290 0 q 189 28 235 0 q 115 101 143 56 q 88 201 88 147 l 88 389 l 32 421 l 32 603 l 88 633 l 88 799 q 115 900 88 854 q 189 973 143 946 q 290 1000 235 1000 l 381 1000 l 381 788 l 300 788 q 300 788 300 788 q 300 788 300 788 l 300 564 l 238 511 l 300 460 l 300 213 q 300 213 300 213 q 300 213 300 213 l 381 213 l 381 0 l 290 0 l 290 0 z "},"}":{"ha":401,"x_min":71,"x_max":419,"o":"m 71 0 l 71 0 l 71 213 l 151 213 q 151 213 151 213 q 151 213 151 213 l 151 458 l 214 511 l 151 564 l 151 788 q 151 788 151 788 q 151 788 151 788 l 71 788 l 71 1000 l 161 1000 q 263 973 217 1000 q 336 900 308 946 q 364 799 364 854 l 364 635 l 419 601 l 419 424 l 364 389 l 364 201 q 336 101 364 147 q 263 28 308 56 q 161 0 217 0 l 71 0 z "},"[":{"ha":382,"x_min":75,"x_max":368,"o":"m 75 0 l 75 0 l 75 1000 l 368 1000 l 368 788 l 288 788 l 288 213 l 368 213 l 368 0 l 75 0 z "},"]":{"ha":383,"x_min":71,"x_max":364,"o":"m 71 0 l 71 0 l 71 213 l 150 213 l 150 788 l 71 788 l 71 1000 l 364 1000 l 364 0 l 71 0 z "},"-":{"ha":718,"x_min":82,"x_max":661,"o":"m 82 304 l 82 304 l 82 517 l 661 517 l 661 304 l 82 304 z "},"–":{"ha":983,"x_min":75,"x_max":906,"o":"m 75 303 l 75 303 l 75 515 l 906 515 l 906 303 l 75 303 z "},"—":{"ha":1142,"x_min":75,"x_max":1050,"o":"m 75 303 l 75 303 l 75 515 l 1050 515 l 1050 303 l 75 303 z "},"_":{"ha":1150,"x_min":75,"x_max":1057,"o":"m 75 -215 l 75 -215 l 75 -3 l 1057 -3 l 1057 -215 l 75 -215 z "},"“":{"ha":647,"x_min":63,"x_max":574,"o":"m 63 608 l 63 608 l 63 783 q 90 878 63 835 q 167 951 118 922 q 275 990 215 981 l 275 608 l 63 608 m 361 607 l 361 607 l 361 782 q 390 877 361 833 q 466 950 418 921 q 574 989 514 979 l 574 607 l 361 607 z "},"”":{"ha":647,"x_min":75,"x_max":586,"o":"m 75 600 l 75 600 l 75 981 l 289 981 l 289 807 q 260 714 289 757 q 183 640 232 671 q 75 600 135 610 m 374 600 l 374 600 l 374 981 l 586 981 l 586 807 q 558 714 586 757 q 482 640 531 671 q 374 600 433 610 z "},"‘":{"ha":333,"x_min":47,"x_max":260,"o":"m 47 607 l 47 607 l 47 782 q 75 876 47 833 q 151 949 103 919 q 260 989 200 979 l 260 607 l 47 607 z "},"’":{"ha":331,"x_min":75,"x_max":288,"o":"m 75 600 l 75 600 l 75 981 l 288 981 l 288 807 q 260 713 288 757 q 183 640 232 669 q 75 600 135 610 z "},"\"":{"ha":550,"x_min":50,"x_max":513,"o":"m 301 701 l 301 701 l 301 981 l 513 981 l 513 701 l 301 701 m 50 701 l 50 701 l 50 981 l 261 981 l 261 701 l 50 701 z "},"'":{"ha":349,"x_min":82,"x_max":294,"o":"m 82 700 l 82 700 l 82 981 l 294 981 l 294 700 l 82 700 z "}," ":{"ha":447,"x_min":0,"x_max":0,"o":""}," ":{"ha":447,"x_min":0,"x_max":0,"o":""},"€":{"ha":1110,"x_min":49,"x_max":1026,"o":"m 375 0 q 274 28 319 0 q 201 101 228 56 q 174 201 174 147 l 174 260 l 49 260 l 49 472 l 174 472 l 174 521 l 49 521 l 49 733 l 174 733 l 174 799 q 201 900 174 854 q 274 973 228 946 q 375 1000 319 1000 l 1026 1000 l 1026 788 l 386 788 q 386 788 386 788 q 386 788 386 788 l 386 733 l 890 733 l 890 521 l 386 521 l 386 472 l 890 472 l 890 260 l 386 260 l 386 213 q 386 213 386 213 q 386 213 386 213 l 1026 213 l 1026 0 l 375 0 l 375 0 z "},"¢":{"ha":883,"x_min":46,"x_max":863,"o":"m 404 -137 l 404 -137 l 404 0 l 249 0 q 147 28 193 0 q 74 101 101 56 q 46 201 46 147 l 46 617 q 74 718 46 672 q 147 792 101 764 q 249 819 193 819 l 404 819 l 404 979 l 618 979 l 618 819 l 863 819 l 863 604 l 618 604 l 618 213 l 863 213 l 863 0 l 618 0 l 618 -137 l 404 -137 m 258 213 l 404 213 l 404 604 l 258 604 q 258 604 258 604 q 258 604 258 604 l 258 213 q 258 213 258 213 q 258 213 258 213 z "},"$":{"ha":1094,"x_min":47,"x_max":1028,"o":"m 432 -136 l 432 -136 l 432 0 l 253 0 q 147 28 193 0 q 74 103 100 56 q 47 206 47 150 l 47 293 l 260 293 l 260 213 q 260 213 260 213 q 260 213 260 213 l 431 213 l 431 389 l 253 389 q 148 416 194 389 q 74 490 101 443 q 47 597 47 538 l 47 794 q 74 899 47 853 q 147 973 100 946 q 253 1000 193 1000 l 432 1000 l 432 1136 l 644 1136 l 644 1000 l 822 1000 q 928 973 882 1000 q 1001 899 975 946 q 1028 794 1028 853 l 1028 706 l 815 706 l 815 788 q 815 788 815 788 q 815 788 815 788 l 644 788 l 644 601 l 822 601 q 928 574 882 601 q 1001 501 975 546 q 1028 403 1028 456 l 1028 206 q 1001 103 1028 150 q 927 28 974 56 q 822 0 881 0 l 644 0 l 644 -136 l 432 -136 m 260 601 l 431 601 l 431 788 l 260 788 q 260 788 260 788 q 260 788 260 788 l 260 601 q 260 601 260 601 q 260 601 260 601 m 644 213 l 644 213 l 815 213 q 815 213 815 213 q 815 213 815 213 l 815 389 q 815 389 815 389 q 815 389 815 389 l 644 389 l 644 213 z "},"£":{"ha":1019,"x_min":54,"x_max":944,"o":"m 54 0 l 54 0 l 54 213 l 179 213 l 179 385 l 54 385 l 54 597 l 179 597 l 179 799 q 207 900 179 854 q 281 973 235 946 q 381 1000 326 1000 l 743 1000 q 844 973 799 1000 q 917 900 890 946 q 944 799 944 854 l 944 721 l 731 721 l 731 801 q 731 801 731 801 q 731 801 731 801 l 392 801 q 392 801 392 801 q 392 801 392 801 l 392 597 l 811 597 l 811 385 l 392 385 l 392 213 l 944 213 l 944 0 l 54 0 z "},"+":{"ha":632,"x_min":24,"x_max":603,"o":"m 204 119 l 204 119 l 204 304 l 24 304 l 24 517 l 204 517 l 204 699 l 417 699 l 417 517 l 603 517 l 603 304 l 417 304 l 417 119 l 204 119 z "},"−":{"ha":718,"x_min":82,"x_max":661,"o":"m 82 304 l 82 304 l 82 517 l 661 517 l 661 304 l 82 304 z "},"×":{"ha":758,"x_min":74,"x_max":704,"o":"m 74 114 l 74 114 l 74 183 l 253 417 l 74 647 l 74 717 l 293 717 l 388 586 l 483 717 l 704 717 l 704 647 l 524 417 l 704 183 l 704 114 l 483 114 l 388 243 l 292 114 l 74 114 z "},"÷":{"ha":721,"x_min":10,"x_max":690,"o":"m 10 333 l 10 333 l 10 546 l 690 546 l 690 333 l 10 333 m 254 0 l 254 0 l 254 213 l 467 213 l 467 0 l 254 0 m 254 642 l 254 642 l 254 856 l 467 856 l 467 642 l 254 642 z "},"=":{"ha":886,"x_min":82,"x_max":813,"o":"m 82 460 l 82 460 l 82 672 l 813 672 l 813 460 l 82 460 m 82 179 l 82 179 l 82 392 l 813 392 l 813 179 l 82 179 z "},">":{"ha":660,"x_min":82,"x_max":676,"o":"m 82 -26 l 82 -26 l 82 221 l 406 408 l 82 594 l 82 840 l 676 497 l 676 318 l 82 -26 z "},"<":{"ha":657,"x_min":7,"x_max":600,"o":"m 600 -24 l 600 -24 l 7 321 l 7 499 l 600 843 l 600 599 l 275 411 l 600 222 l 600 -24 z "},"~":{"ha":561,"x_min":33,"x_max":554,"o":"m 417 292 q 286 335 367 292 q 157 376 204 376 q 33 322 104 376 l 33 506 q 165 538 107 538 q 308 494 218 538 q 432 451 399 451 q 554 501 476 451 l 554 326 q 417 292 471 292 l 417 292 z "},"%":{"ha":1342,"x_min":67,"x_max":1263,"o":"m 186 0 l 186 0 l 186 218 l 1097 999 l 1168 999 l 1168 782 l 257 0 l 186 0 m 256 513 q 158 537 200 513 q 91 603 115 561 q 67 701 67 646 l 67 801 q 91 899 67 857 q 158 965 115 942 q 256 989 200 989 l 368 989 q 466 965 424 989 q 533 899 508 942 q 557 801 557 857 l 557 701 q 533 603 557 646 q 466 537 508 561 q 368 513 424 513 l 256 513 l 256 513 m 286 688 l 286 688 l 336 688 q 369 701 356 688 q 382 733 382 714 l 382 769 q 369 802 382 789 q 336 815 356 815 l 286 815 q 253 802 267 815 q 240 769 240 789 l 240 733 q 253 701 240 714 q 286 688 267 688 m 961 13 q 865 37 907 13 q 798 103 822 61 q 774 201 774 146 l 774 301 q 798 399 774 357 q 865 465 822 442 q 961 489 907 489 l 1074 489 q 1172 465 1129 489 q 1238 399 1214 442 q 1263 301 1263 357 l 1263 201 q 1238 103 1263 146 q 1172 37 1214 61 q 1074 13 1129 13 l 961 13 l 961 13 m 993 186 l 993 186 l 1043 186 q 1076 199 1063 186 q 1089 232 1089 213 l 1089 269 q 1076 302 1089 289 q 1043 315 1063 315 l 993 315 q 960 302 974 315 q 947 269 947 289 l 947 232 q 960 199 947 213 q 993 186 974 186 z "},"@":{"ha":1132,"x_min":75,"x_max":1057,"o":"m 278 0 q 176 28 222 0 q 103 101 131 56 q 75 201 75 147 l 75 799 q 103 900 75 854 q 176 973 131 946 q 278 1000 222 1000 l 854 1000 q 956 973 910 1000 q 1029 900 1001 946 q 1057 799 1057 854 l 1057 300 l 524 300 q 429 320 468 300 q 369 379 390 340 q 349 474 349 418 l 349 547 q 369 642 349 603 q 429 701 390 681 q 524 721 468 721 l 610 721 q 704 701 665 721 q 763 642 743 681 q 783 547 783 603 l 783 460 l 844 460 l 844 788 q 844 788 844 788 q 844 788 844 788 l 288 788 q 288 788 288 788 q 288 788 288 788 l 288 213 q 288 213 288 213 q 288 213 288 213 l 1057 213 l 1057 0 l 278 0 l 278 0 m 496 460 l 636 460 l 636 574 q 636 574 636 574 q 636 574 636 574 l 496 574 q 496 574 496 574 q 496 574 496 574 l 496 460 q 496 460 496 460 q 496 460 496 460 z "},"&":{"ha":1303,"x_min":74,"x_max":1214,"o":"m 275 0 q 175 27 221 0 q 101 99 129 54 q 74 201 74 144 l 74 458 q 89 522 74 489 q 133 575 104 556 q 124 649 124 599 l 124 797 q 151 900 124 854 q 225 972 179 946 q 325 999 271 999 l 815 999 q 907 977 864 999 q 979 918 950 956 q 1017 833 1008 881 l 1017 711 l 804 711 l 804 785 q 804 785 804 785 q 804 785 804 785 l 336 785 q 336 785 336 785 q 336 785 336 785 l 336 635 l 842 381 l 842 513 l 1054 513 l 1054 289 l 1214 194 l 1214 -25 l 1019 86 q 946 24 990 47 q 853 0 901 0 l 275 0 m 286 213 l 686 213 q 715 213 701 213 q 742 213 728 213 l 310 431 l 289 442 q 286 431 286 442 q 286 376 286 419 l 286 213 q 286 213 286 213 q 286 213 286 213 z "},"¶":{"ha":1157,"x_min":78,"x_max":1088,"o":"m 569 0 l 569 0 l 569 322 l 281 322 q 179 350 225 322 q 106 424 133 378 q 78 524 78 469 l 78 778 q 106 878 78 832 q 179 953 133 925 q 281 981 225 981 l 1088 981 l 1088 0 l 875 0 l 875 322 l 783 322 l 783 0 l 569 0 m 290 536 l 569 536 l 569 767 l 290 767 q 290 767 290 767 q 290 767 290 767 l 290 536 q 290 536 290 536 q 290 536 290 536 m 783 536 l 783 536 l 875 536 l 875 767 l 783 767 l 783 536 z "},"°":{"ha":610,"x_min":63,"x_max":579,"o":"m 265 476 q 164 504 210 476 q 90 578 118 532 q 63 679 63 624 l 63 779 q 90 881 63 835 q 164 953 118 926 q 265 981 210 981 l 378 981 q 478 953 432 981 q 551 881 524 926 q 579 779 579 835 l 579 679 q 551 578 579 624 q 478 504 524 532 q 378 476 432 476 l 265 476 l 265 476 m 250 665 l 392 665 q 392 665 392 665 q 392 665 392 665 l 392 793 q 392 793 392 793 q 392 793 392 793 l 250 793 q 250 793 250 793 q 250 793 250 793 l 250 665 q 250 665 250 665 q 250 665 250 665 z "},"|":{"ha":297,"x_min":75,"x_max":288,"o":"m 75 -137 l 75 -137 l 75 1117 l 288 1117 l 288 -137 l 75 -137 z "},"̈":{"ha":0,"x_min":-254,"x_max":256,"o":"m 42 889 l 42 889 l 42 1103 l 256 1103 l 256 889 l 42 889 m -254 889 l -254 889 l -254 1103 l -42 1103 l -42 889 l -254 889 z "},"̇":{"ha":0,"x_min":-107,"x_max":107,"o":"m -107 889 l -107 1103 l 107 1103 l 107 889 l -107 889 z "},"̀":{"ha":0,"x_min":-168,"x_max":121,"o":"m -97 889 l -97 889 l -168 1171 l 50 1171 l 121 889 l -97 889 z "},"́":{"ha":0,"x_min":-117,"x_max":172,"o":"m -117 889 l -117 889 l -46 1171 l 172 1171 l 101 889 l -117 889 z "},"̂":{"ha":0,"x_min":-221,"x_max":224,"o":"m -221 889 l -221 889 l -68 1144 l 71 1144 l 224 889 l 38 889 l -1 950 l -36 889 l -221 889 z "},"̌":{"ha":0,"x_min":-222,"x_max":222,"o":"m -69 889 l -69 889 l -222 1144 l -40 1144 l -3 1083 l 35 1144 l 222 1144 l 69 889 l -69 889 z "},"̊":{"ha":0,"x_min":-142,"x_max":142,"o":"m -35 889 q -110 920 -78 889 q -142 994 -142 951 l -142 1063 q -110 1137 -142 1106 q -35 1168 -78 1168 l 36 1168 q 110 1137 79 1168 q 142 1063 142 1106 l 142 994 q 110 920 142 951 q 36 889 79 889 l -35 889 m -35 985 l 35 985 q 35 985 35 985 q 35 985 35 985 l 35 1060 q 35 1060 35 1060 q 35 1060 35 1060 l -35 1060 q -35 1060 -35 1060 q -35 1060 -35 1060 l -35 985 q -35 985 -35 985 q -35 985 -35 985 z "},"̃":{"ha":0,"x_min":-261,"x_max":261,"o":"m 119 900 q -35 958 40 900 q -154 1017 -107 1017 l -261 1017 l -261 1178 l -137 1178 q 4 1118 -61 1178 q 132 1058 69 1058 l 261 1058 l 261 900 l 119 900 l 119 900 z "},"̧":{"ha":0,"x_min":454,"x_max":744,"o":"m 454 -217 l 526 21 l 744 21 l 672 -217 l 454 -217 z "},"¨":{"ha":788,"x_min":139,"x_max":649,"o":"m 435 889 l 435 889 l 435 1103 l 649 1103 l 649 889 l 435 889 m 139 889 l 139 889 l 139 1103 l 351 1103 l 351 889 l 139 889 z "},"˙":{"ha":414,"x_min":100,"x_max":314,"o":"m 100 889 l 100 1103 l 314 1103 l 314 889 l 100 889 z "},"`":{"ha":378,"x_min":54,"x_max":343,"o":"m 125 889 l 125 889 l 54 1171 l 272 1171 l 343 889 l 125 889 z "},"´":{"ha":296,"x_min":39,"x_max":328,"o":"m 39 889 l 39 889 l 110 1171 l 328 1171 l 257 889 l 39 889 z "},"ˆ":{"ha":722,"x_min":139,"x_max":583,"o":"m 139 889 l 139 889 l 292 1144 l 431 1144 l 583 889 l 397 889 l 358 950 l 324 889 l 139 889 z "},"ˇ":{"ha":413,"x_min":-15,"x_max":429,"o":"m 138 889 l 138 889 l -15 1144 l 167 1144 l 204 1083 l 242 1144 l 429 1144 l 276 889 l 138 889 z "},"˘":{"ha":399,"x_min":56,"x_max":392,"o":"m 199 1038 q 94 1078 132 1038 q 56 1221 56 1118 l 197 1222 q 197 1192 197 1203 q 197 1181 197 1182 l 251 1181 q 251 1192 251 1182 q 251 1222 251 1203 l 392 1222 q 353 1078 392 1118 q 263 1038 314 1038 l 199 1038 l 199 1038 z "},"˚":{"ha":324,"x_min":21,"x_max":304,"o":"m 128 1039 q 53 1070 85 1039 q 21 1144 21 1101 l 21 1213 q 53 1287 21 1256 q 128 1318 85 1318 l 199 1318 q 273 1287 242 1318 q 304 1213 304 1256 l 304 1144 q 273 1070 304 1101 q 199 1039 242 1039 l 128 1039 m 128 1135 l 197 1135 q 197 1135 197 1135 q 197 1135 197 1135 l 197 1210 q 197 1210 197 1210 q 197 1210 197 1210 l 128 1210 q 128 1210 128 1210 q 128 1210 128 1210 l 128 1135 q 128 1135 128 1135 q 128 1135 128 1135 z "},"˜":{"ha":560,"x_min":19,"x_max":542,"o":"m 400 900 q 246 958 321 900 q 126 1017 174 1017 l 19 1017 l 19 1178 l 143 1178 q 285 1118 219 1178 q 413 1058 350 1058 l 542 1058 l 542 900 l 400 900 l 400 900 z "},"¯":{"ha":694,"x_min":121,"x_max":571,"o":"m 121 886 l 121 886 l 121 1000 l 571 1000 l 571 886 l 121 886 z "},"¸":{"ha":296,"x_min":6,"x_max":296,"o":"m 6 -217 l 78 21 l 296 21 l 224 -217 l 6 -217 z "},"˛":{"ha":694,"x_min":263,"x_max":432,"o":"m 263 -347 l 263 -347 l 263 -24 l 432 -24 l 432 -347 l 263 -347 z "},"":{"ha":1071,"x_min":64,"x_max":1046,"o":"m 64 0 l 64 0 l 64 71 l 650 788 l 64 788 l 64 1000 l 1046 1000 l 1046 931 l 281 0 l 64 0 z "},"":{"ha":1089,"x_min":17,"x_max":999,"o":"m 786 0 l 786 343 q 787 382 786 374 q 778 390 788 390 q 740 389 769 389 l 219 389 q 118 416 164 389 q 44 489 72 443 q 17 590 17 535 l 17 796 q 44 897 17 851 q 118 971 72 943 q 219 999 164 999 l 797 999 q 899 971 853 999 q 972 897 944 943 q 999 796 999 851 l 999 0 l 786 0 m 231 601 l 786 601 l 786 785 q 786 785 786 785 q 786 785 786 785 l 231 785 q 231 785 231 785 q 231 785 231 785 l 231 601 q 231 601 231 601 q 231 601 231 601 z "},"":{"ha":1132,"x_min":68,"x_max":1049,"o":"m 268 0 q 142 45 197 0 q 69 157 86 90 l 68 343 l 835 758 l 835 786 l 282 786 q 282 786 282 786 q 282 786 282 786 l 282 690 l 68 690 l 68 797 q 96 899 68 853 q 169 972 124 944 q 271 999 215 999 l 849 999 q 941 977 899 999 q 1012 918 983 956 q 1049 833 1040 881 l 1049 629 l 282 214 l 282 213 l 1049 213 l 1049 0 l 268 0 l 268 0 z "},"":{"ha":926,"x_min":38,"x_max":890,"o":"m 247 264 l 247 378 q 275 479 247 433 q 349 552 303 525 q 449 579 394 579 l 678 579 q 678 579 678 579 q 678 579 678 579 l 678 788 q 678 788 678 788 q 678 788 678 788 l 250 788 l 250 651 l 38 651 l 38 832 q 72 917 44 879 q 143 978 100 956 q 236 1000 186 1000 l 689 1000 q 789 973 743 1000 q 863 900 835 946 q 890 799 890 854 l 890 568 q 863 467 890 513 q 789 393 835 421 q 689 365 743 365 l 461 365 q 461 365 461 365 q 461 365 461 365 l 461 264 l 247 264 m 247 0 l 247 213 l 461 213 l 461 0 l 247 0 z "},"":{"ha":1004,"x_min":13,"x_max":957,"o":"m 611 0 l 611 0 l 611 246 l 13 246 l 13 433 l 493 997 l 685 997 l 685 882 l 301 460 l 611 460 l 611 647 l 824 647 l 824 460 l 957 460 l 957 246 l 824 246 l 824 0 l 611 0 z "},"":{"ha":1571,"x_min":-1,"x_max":1483,"o":"m 778 0 l 778 0 l -1 928 l -1 1000 l 221 1000 l 782 333 l 782 574 l 483 926 l 483 1000 l 704 1000 l 1267 331 l 1267 1000 l 1483 1000 l 1483 0 l 1263 0 l 999 313 l 999 0 l 778 0 z "},"":{"ha":1596,"x_min":111,"x_max":1596,"o":"m 111 0 l 111 0 l 111 1000 l 328 1000 l 328 329 l 889 1000 l 1111 1000 l 1111 926 l 813 574 l 813 329 l 1372 1000 l 1596 1000 l 1596 928 l 817 0 l 596 0 l 596 313 l 333 0 l 111 0 z "},"":{"ha":1075,"x_min":75,"x_max":1057,"o":"m 75 0 l 75 0 l 75 1000 l 288 1000 l 288 325 l 840 1000 l 1057 1000 l 1057 911 l 293 0 l 75 0 z "},"":{"ha":1075,"x_min":0,"x_max":981,"o":"m 0 0 l 0 0 l 0 69 l 763 1000 l 981 1000 l 981 0 l 767 0 l 767 242 l 419 242 l 217 0 l 0 0 m 597 454 l 597 454 l 767 454 l 767 654 l 597 454 z "},"":{"ha":1075,"x_min":75,"x_max":1057,"o":"m 75 0 l 75 0 l 75 1000 l 293 1000 l 1057 69 l 1057 0 l 839 0 l 635 242 l 288 242 l 288 0 l 75 0 m 288 454 l 288 454 l 457 454 l 288 654 l 288 454 z "}}}
